<svg xmlns="http://www.w3.org/2000/svg" width="62" height="62" viewBox="0 0 62 62">
  <defs>
    <style>
      .cls-1 {
        fill: #393637;
        fill-rule: evenodd;
      }
    </style>
  </defs>
  <path id="Forma_1" data-name="Forma 1" class="cls-1" d="M35.291,30.247a1,1,0,0,1,1.416,1.416l-1.126,1.123a1,1,0,0,1-1.416-1.414Zm-5.8-5.99a1,1,0,1,1,1.416,1.416L29.685,26.9a1,1,0,0,1-1.416-1.415ZM41.187,36.137A1,1,0,0,1,42.6,37.552l-1.126,1.125a1,1,0,0,1-1.416-1.416Zm-40.91-25.2L10.949,0.274a1,1,0,1,1,1.416,1.414l-2.306,2.3L16,9.928a1,1,0,0,1-1.416,1.416L8.643,5.407,5.415,8.631l5.944,5.937a1,1,0,0,1-1.416,1.416L4,10.047l-2.306,2.3A1,1,0,1,1,.277,10.935ZM23.5,18.467a1,1,0,0,1,1.416,1.415l-1.126,1.124a1,1,0,0,1-1.416-1.414ZM9.652,20.517L9.66,20.51,9.669,20.5,20.53,9.651l0,0,0,0,3.01-3.007a1,1,0,1,1,1.416,1.415l-2.306,2.3L51.433,39.1a1,1,0,0,1,0,1.414L48.445,43.5l4.246,4.242a1,1,0,0,1,0,1.416L51.625,50.22,61.708,60.292a1,1,0,0,1-1.417,1.415L50.209,51.634l-1,1a1,1,0,0,1-1.416,0L43.546,48.39l-2.987,2.984a1,1,0,0,1-1.416,0L10.368,22.631l-2.306,2.3A1,1,0,1,1,6.646,23.52Zm30.2,28.736,2.987-2.984a1,1,0,0,1,1.416,0L48.5,50.511l1-1,1.067-1.065L46.321,44.2a1,1,0,0,1,0-1.415l2.987-2.983L21.242,11.769l-9.457,9.446Z"/>
</svg>
