<svg xmlns="http://www.w3.org/2000/svg" width="53" height="62" viewBox="0 0 53 62">
  <defs>
    <style>
      .cls-1 {
        fill: #393637;
        fill-rule: evenodd;
      }
    </style>
  </defs>
  <path id="Forma_1" data-name="Forma 1" class="cls-1" d="M50.9,34.631a44.33,44.33,0,0,0-6.141-9.94,0.885,0.885,0,0,0-1.385,1.1,42.57,42.57,0,0,1,5.9,9.536,20.747,20.747,0,0,1,1.856,10.5A12.821,12.821,0,0,1,46.7,54.272a22.1,22.1,0,0,1-8.331,4.3,43.481,43.481,0,0,1-11.851,1.657H26.479a43.553,43.553,0,0,1-11.852-1.657,22.1,22.1,0,0,1-8.331-4.3,12.819,12.819,0,0,1-4.423-8.442c-0.585-5.192,1.326-11,5.679-17.256A67.553,67.553,0,0,1,17.4,17.581H35.6c1.145,1.036,2.617,2.434,4.176,4.084a0.885,0.885,0,1,0,1.287-1.214c-1.236-1.308-2.417-2.46-3.432-3.406A2.758,2.758,0,0,0,36,12.062H35.75A51.6,51.6,0,0,0,39,6.718c1.321-2.593,1.708-4.327,1.217-5.456A2.085,2.085,0,0,0,38.526.037c-1.184-.175-2.747.3-4.726,0.9a25.594,25.594,0,0,1-7.3,1.45A25.593,25.593,0,0,1,19.2.94c-1.978-.6-3.542-1.077-4.726-0.9a2.085,2.085,0,0,0-1.689,1.224C12.293,2.39,12.679,4.125,14,6.718a51.656,51.656,0,0,0,3.249,5.344H17a2.758,2.758,0,0,0-1.634,4.982C9.231,22.759-1.2,34.35.113,46.029,0.882,52.854,5.74,57.781,14.161,60.278A44.662,44.662,0,0,0,26.5,62c0.053,0,.175,0,0.361,0a44.883,44.883,0,0,0,11.979-1.722c8.421-2.5,13.278-7.425,14.048-14.249A22.478,22.478,0,0,0,50.9,34.631ZM14.407,1.965a0.325,0.325,0,0,1,.324-0.177,12.549,12.549,0,0,1,3.952.845A27.36,27.36,0,0,0,26.5,4.159a27.357,27.357,0,0,0,7.816-1.526,12.577,12.577,0,0,1,3.952-.845,0.326,0.326,0,0,1,.325.177c0.079,0.181.619,1.982-4.538,9.438a4.123,4.123,0,0,0-.371.658H19.316a4.107,4.107,0,0,0-.371-0.658C13.788,3.947,14.329,2.146,14.407,1.965ZM17,13.831H36a0.99,0.99,0,1,1,0,1.98H17A0.99,0.99,0,1,1,17,13.831Zm19.68,14.5a14.4,14.4,0,0,0-24.266,7.22,0.885,0.885,0,1,0,1.733.361,12.61,12.61,0,1,1,.036,5.347,0.885,0.885,0,0,0-1.728.385A14.392,14.392,0,1,0,36.677,28.328Zm-9.233,9.456-0.079-.03V32.832l0.13,0.009a5.129,5.129,0,0,1,2.105.617,1.7,1.7,0,0,0,.671.242,1.173,1.173,0,0,0,.9-1.2,1.545,1.545,0,0,0-1.231-1.13,8.535,8.535,0,0,0-2.457-.419l-0.118,0V30.2a0.559,0.559,0,0,0-.575-0.412,0.5,0.5,0,0,0-.552.412v0.782l-0.108.012c-1.293.136-4.3,0.817-4.3,4.194,0,2.893,2.3,3.711,4.328,4.432l0.081,0.028v5.667l-0.131-.011a4.723,4.723,0,0,1-2.93-1.317,1.564,1.564,0,0,0-.82-0.492,1.231,1.231,0,0,0-.946,1.2c0,1.036,1.834,2.57,4.707,2.615l0.119,0v0.838a0.5,0.5,0,0,0,.552.412,0.559,0.559,0,0,0,.575-0.412V47.26l0.1-.014a4.391,4.391,0,0,0,4.119-4.658C31.588,39.56,29.541,38.555,27.444,37.784ZM26.377,37.4l-0.164-.062c-1.262-.476-2.306-0.984-2.306-2.386,0-1.163.807-1.878,2.334-2.069l0.136-.017V37.4h0Zm0.991,7.854-0.143.027h0V40.061l0.169,0.072a2.826,2.826,0,0,1,2.116,2.71A2.334,2.334,0,0,1,27.368,45.258Z"/>
</svg>
