<svg xmlns="http://www.w3.org/2000/svg" width="62" height="62" viewBox="0 0 62 62">
  <defs>
    <style>
      .cls-1 {
        fill: #393637;
        fill-rule: evenodd;
      }
    </style>
  </defs>
  <path id="Forma_1" data-name="Forma 1" class="cls-1" d="M45.272,29.9a9.557,9.557,0,0,0-7.258-1.083,0.908,0.908,0,1,0,.459,1.757,7.758,7.758,0,0,1,5.884.893A0.907,0.907,0,0,0,45.272,29.9ZM23.982,28.821A9.557,9.557,0,0,0,16.724,29.9a0.907,0.907,0,0,0,.915,1.567,7.758,7.758,0,0,1,5.884-.893A0.908,0.908,0,1,0,23.982,28.821ZM37.988,45.386a7.686,7.686,0,0,0-13.98,0,0.908,0.908,0,0,0,1.654.751,5.867,5.867,0,0,1,10.671,0A0.908,0.908,0,1,0,37.988,45.386Zm10.9-39.669A31.007,31.007,0,0,0,14.905,4.548l-1.752-3.36A2.131,2.131,0,0,0,11.258.04a2.172,2.172,0,0,0-1.9,1.151c-5.371,10.336-5.121,9.851-5.144,9.9a7.505,7.505,0,0,0-.377,5,30.984,30.984,0,0,0,6.408,37.95,0.908,0.908,0,1,0,1.216-1.349A29.179,29.179,0,0,1,4.787,18.208,7.61,7.61,0,0,0,16.148,19.8a0.908,0.908,0,0,0-1.187-1.375,5.8,5.8,0,0,1-3.843,1.418,5.718,5.718,0,0,1-5.249-7.99c5.355-10.067,4.984-9.995,5.389-9.995,0.32,0.035-.194-0.746,5.275,9.743a5.82,5.82,0,0,1,.337,3.682,0.908,0.908,0,0,0,1.768.417,7.612,7.612,0,0,0-.48-4.91L15.746,6.161A29.19,29.19,0,0,1,47.838,7.2,0.908,0.908,0,0,0,48.885,5.717ZM52.266,8.48A0.908,0.908,0,1,0,51.019,9.8,29.174,29.174,0,0,1,14.707,55.22a0.908,0.908,0,1,0-1.013,1.507A30.99,30.99,0,0,0,52.266,8.48Z"/>
</svg>
