<svg xmlns="http://www.w3.org/2000/svg" width="63" height="52" viewBox="0 0 63 52">
  <defs>
    <style>
      .cls-1 {
        fill: #393637;
        fill-rule: evenodd;
      }
    </style>
  </defs>
  <path id="Уровень_коллагена_падает" data-name="Уровень коллагена падает" class="cls-1" d="M7.961,15.281c0.025,1.082.123,2.156,0.249,3.2a18.533,18.533,0,0,0,.959,3.846,9.847,9.847,0,0,0,1.382,2.679,0.455,0.455,0,0,0,.447.127,0.338,0.338,0,0,0,.176-0.522A0.259,0.259,0,0,0,11.1,24.5a10.092,10.092,0,0,1-1.233-2.369,20.842,20.842,0,0,1-1.106-5.323C8.682,15.9,8.638,14.981,8.64,14.08a13.242,13.242,0,0,0,.887-2.326A11.349,11.349,0,0,0,10.1,7.435a0.612,0.612,0,0,0-.775-0.507,1.646,1.646,0,0,0-.761,1.077,11.613,11.613,0,0,0-.517,3.3L8.009,11.9c-0.041.684-.077,1.386-0.072,2.092a10.276,10.276,0,0,1-.764,1.23,3.365,3.365,0,0,1-1.392,1.131,1.1,1.1,0,0,1-.9-0.156,5.711,5.711,0,0,1-1.791-1.634,11.927,11.927,0,0,1-1.626-3.146C1.314,10.99,1.133,10.805.913,10.885,0.676,10.97.63,11.216,0.77,11.606A10.074,10.074,0,0,0,3.8,16.258c0.928,0.72,1.651.977,2.21,0.776A4.519,4.519,0,0,0,7.961,15.281ZM9.485,7.637a2.8,2.8,0,0,1-.079,1.272,19.462,19.462,0,0,1-.588,2.679l-0.08.258A14.87,14.87,0,0,1,9.16,8.385a2.574,2.574,0,0,1,.279-0.769Zm3.878,4.633a0.347,0.347,0,0,0-.436-0.149,0.306,0.306,0,0,0-.23.427,0.267,0.267,0,0,0,.066.129l2.17,4.5c0.41,1.517.809,2.789,1.18,3.823a9.913,9.913,0,0,0,1.074,2.408,0.574,0.574,0,0,0,.62.236,0.465,0.465,0,0,0,.268-0.478,2.106,2.106,0,0,0-.138-0.812c-0.419-1.169-1.195-2.957-2.321-5.4a8.865,8.865,0,0,1-.224-3.076c0.08-1,.278-1.573.566-1.676a1.214,1.214,0,0,1,.963.286,2.777,2.777,0,0,1,1.206,1.441,2.879,2.879,0,0,1,.141,1.461,1.1,1.1,0,0,1-.713.945,0.788,0.788,0,0,1-.193.05,1.338,1.338,0,0,1-.64-0.076,0.719,0.719,0,0,1-.371-0.287,0.389,0.389,0,0,0-.436-0.15,0.351,0.351,0,0,0-.205.494,1.6,1.6,0,0,0,1.407.777A2.092,2.092,0,0,0,17.873,17a1.713,1.713,0,0,0,1.135-1.421,3.7,3.7,0,0,0-.959-3.1,3.348,3.348,0,0,0-1.307-.87,1.675,1.675,0,0,0-1.095-.067c-0.61.219-.926,1.366-0.958,3.462L14.026,13.64Zm7.172-2.076a0.341,0.341,0,0,0-.164-0.189,0.3,0.3,0,0,0-.234-0.012,0.423,0.423,0,0,0-.283.331,4.957,4.957,0,0,0,.081,3.318,2.4,2.4,0,0,0,1.218,1.476,2.037,2.037,0,0,0,1.607.055A3.725,3.725,0,0,0,24.806,13.2a3.385,3.385,0,0,0,.281-2.683A2.312,2.312,0,0,0,24,9.183,2.173,2.173,0,0,0,22.15,9.1a1.936,1.936,0,0,0-1.318,2.137c0.108,0.248.241,0.354,0.428,0.287a0.345,0.345,0,0,0,.253-0.415,1.342,1.342,0,0,1,.881-1.33,1.465,1.465,0,0,1,1.278.1,1.808,1.808,0,0,1,.745.957,2.3,2.3,0,0,1-.048,1.624,3.469,3.469,0,0,1-.852,1.358,2.608,2.608,0,0,1-1,.667A1.36,1.36,0,0,1,21.5,14.5a1.626,1.626,0,0,1-.855-1.051,4.765,4.765,0,0,1-.079-2.994ZM26.3,8.567c1.217-2.1,1.575-3.874,1.046-5.349a2.119,2.119,0,0,0-.761-1.162,0.851,0.851,0,0,0-.76-0.09,1.051,1.051,0,0,0-.586.765,7.808,7.808,0,0,0-.275,2.432,12.622,12.622,0,0,0,.786,4,6.34,6.34,0,0,0,2.11,3.108,2.491,2.491,0,0,0,1.448.571,1.091,1.091,0,0,0,.431-0.078,2.314,2.314,0,0,0,1.325-1.585,4.5,4.5,0,0,0,.016-3.048A2.063,2.063,0,0,0,29.61,6.652a2.3,2.3,0,0,0-1.257.068,2.863,2.863,0,0,0-1.624,1.712,0.441,0.441,0,0,0,.007.284,0.381,0.381,0,0,0,.164.19,0.3,0.3,0,0,0,.234.012,0.443,0.443,0,0,0,.223-0.234A2.146,2.146,0,0,1,28.563,7.41a1.684,1.684,0,0,1,.916-0.06A1.416,1.416,0,0,1,30.4,8.36a4.156,4.156,0,0,1,.115,2.561,1.584,1.584,0,0,1-.868,1.153,0.692,0.692,0,0,1-.192.05,2.048,2.048,0,0,1-1.309-.448,6.2,6.2,0,0,1-1.726-2.786Zm0.039-5.81A3.762,3.762,0,0,1,26.853,5.1a6.875,6.875,0,0,1-.826,2.5,9.737,9.737,0,0,1-.1-4.691,0.411,0.411,0,0,1,.154-0.266A0.244,0.244,0,0,1,26.338,2.757Zm8.053,2.085a2.567,2.567,0,0,0-.568.337,3.211,3.211,0,0,0-.74,1.031,4.834,4.834,0,0,0-.536,2.239,3.522,3.522,0,0,0,.16,1.033,1.815,1.815,0,0,0,1.458,1.237,3.955,3.955,0,0,0,1.959-.244,6.394,6.394,0,0,0,1.693-.932,5.276,5.276,0,0,0,1.352-1.4,0.283,0.283,0,0,0,.04-0.263,0.4,0.4,0,0,0-.256-0.234,0.472,0.472,0,0,0-.268,0,0.289,0.289,0,0,0-.156.152,5.524,5.524,0,0,1-2.619,2.03,3.867,3.867,0,0,1-1.447.232,6.085,6.085,0,0,0,.888-1.524A3.894,3.894,0,0,0,35.444,5.8,1.174,1.174,0,0,0,34.391,4.842Zm0.431,1.414a4.109,4.109,0,0,1-1.07,3.521A1.353,1.353,0,0,1,33.374,9.2a2.5,2.5,0,0,1-.133-0.851A4.2,4.2,0,0,1,33.9,6.186a1.253,1.253,0,0,1,.473-0.5,0.254,0.254,0,0,1,.305.158,0.875,0.875,0,0,1,.1.288l0.03,0.085ZM37.387,3.92a21.028,21.028,0,0,0,.687,2.393q0.274,0.763.525,1.3c0.341,0.738.55,1.161,0.639,1.3a0.309,0.309,0,0,0,.419.155,0.355,0.355,0,0,0,.222-0.5C39.569,7.976,39.3,7.441,39.1,7l0.322-.115,0.881-.316a5.011,5.011,0,0,0,1.127-.538,6.428,6.428,0,0,0,.287.585,2.074,2.074,0,0,0,.9.846,1.8,1.8,0,0,0,1.53.159,3.662,3.662,0,0,0,1.81-2.046A0.306,0.306,0,0,0,46.012,5.3a0.349,0.349,0,0,0-.233-0.222,0.316,0.316,0,0,0-.257-0.023,0.377,0.377,0,0,0-.212.21,3.078,3.078,0,0,1-1.425,1.678,1.036,1.036,0,0,1-.764-0.052A2.019,2.019,0,0,1,42.4,6.385a5.082,5.082,0,0,1-.457-1.061,3.8,3.8,0,0,0,.078-0.85A4.27,4.27,0,0,0,41.8,2.988,1.455,1.455,0,0,0,41.29,2.27a0.326,0.326,0,0,0-.125.026,0.918,0.918,0,0,0-.383.959,7.278,7.278,0,0,0,.382,2.025,3.944,3.944,0,0,1-1.153.624l-0.169.06-0.254.092L39.181,6.2l-0.153.055-0.186.067L38.751,6.07q-0.283-.788-0.573-1.917C38.122,3.943,38.1,3.835,38.1,3.818A0.629,0.629,0,0,0,37.96,3.6a0.287,0.287,0,0,0-.321-0.1A0.473,0.473,0,0,0,37.387,3.92ZM45.43,3.1c-0.1-.482-0.191-1.117-0.293-1.883A0.355,0.355,0,0,0,44.675.941a0.345,0.345,0,0,0-.19.163,1.084,1.084,0,0,0-.005.519c0.018,0.051.026,0.125,0.051,0.25a22.164,22.164,0,0,0,.575,2.988,2.418,2.418,0,0,0,1.258,1.481,1.751,1.751,0,0,0,1.294.033,1.693,1.693,0,0,0,1.1-1.2A2.658,2.658,0,0,0,48.7,3.458a2.423,2.423,0,0,0-.7-1.049,1.439,1.439,0,0,0-1.509-.262,2.06,2.06,0,0,0-.781.49A0.886,0.886,0,0,0,45.43,3.1Zm0.317,1.417a1.007,1.007,0,0,1-.027-0.449,1.243,1.243,0,0,1,.187-0.545,1.491,1.491,0,0,1,.821-0.7,0.84,0.84,0,0,1,.6.014,1.43,1.43,0,0,1,.7.879,2.016,2.016,0,0,1,.084,1.194,1.067,1.067,0,0,1-1.863.458A2.288,2.288,0,0,1,45.747,4.516ZM2.169,33.841C2.049,33.559,1.9,33.46,1.7,33.533a0.426,0.426,0,0,0-.246.432c0.223,0.781.505,1.674,0.876,2.708a11.962,11.962,0,0,0,.92,2.138,0.387,0.387,0,0,0,.478.211,0.324,0.324,0,0,0,.188-0.489,4.46,4.46,0,0,0-.252-0.54l-0.2-.406c0.343,0.049.652,0.11,0.961,0.171l1.07,0.209a3.506,3.506,0,0,0,1.7-.113A2.9,2.9,0,0,0,8.3,37.17,3.6,3.6,0,0,0,9.047,36a0.316,0.316,0,0,0,.011-0.291,0.312,0.312,0,0,0-.433-0.247,0.608,0.608,0,0,0-.185.123,3.255,3.255,0,0,1-.714,1.156,2.748,2.748,0,0,1-.816.446,1.8,1.8,0,0,1-.79.092,7.673,7.673,0,0,1-.789-0.119C4.983,37.1,4.72,37.058,4.56,37.038l-1.01-.1a5.415,5.415,0,0,0,1.1-1.312A8.528,8.528,0,0,0,5.36,33.4l0.157-.63a0.549,0.549,0,0,0-.016-0.2,0.274,0.274,0,0,0-.2-0.195,0.428,0.428,0,0,0-.268,0,0.383,0.383,0,0,0-.185.123,1.414,1.414,0,0,0-.089.338,10.9,10.9,0,0,1-.694,2.277,4.01,4.01,0,0,1-1.052,1.334C2.626,35.379,2.356,34.52,2.169,33.841Zm6.623-2.433a0.344,0.344,0,0,0-.164-0.19A0.3,0.3,0,0,0,8.4,31.206a0.422,0.422,0,0,0-.283.331,4.957,4.957,0,0,0,.081,3.319A2.394,2.394,0,0,0,9.412,36.33a2.036,2.036,0,0,0,1.607.055,3.724,3.724,0,0,0,2.045-1.977,3.385,3.385,0,0,0,.281-2.683,2.316,2.316,0,0,0-1.089-1.331,2.176,2.176,0,0,0-1.847-.083A1.935,1.935,0,0,0,9.09,32.448C9.2,32.7,9.331,32.8,9.518,32.735a0.346,0.346,0,0,0,.252-0.416,1.341,1.341,0,0,1,.881-1.33,1.465,1.465,0,0,1,1.278.1,1.808,1.808,0,0,1,.745.957,2.3,2.3,0,0,1-.049,1.624,3.474,3.474,0,0,1-.852,1.358,2.607,2.607,0,0,1-1,.666,1.364,1.364,0,0,1-1.008.018,1.628,1.628,0,0,1-.855-1.052,4.765,4.765,0,0,1-.079-2.994Zm6.15,2.059a0.316,0.316,0,0,1,.019.108l0.006,0.017,0.006,0.017a1.322,1.322,0,0,0,.5.643,1.286,1.286,0,0,0,1.222.155c0.8-.286,1.356-1.232,1.706-2.869a7.274,7.274,0,0,0,.036-2.94,3.756,3.756,0,0,1-.059-0.59c0.085-.031.19,0.1,0.306,0.425L18.7,28.483c0.1,0.288.244,0.734,0.4,1.329,0.132,0.527.254,0.923,0.352,1.194,0.517,1.441,1.179,2.006,1.992,1.714a2.763,2.763,0,0,0,1.27-.991,4.234,4.234,0,0,0,.535-1.015,0.41,0.41,0,0,0,.043-0.36,0.3,0.3,0,0,0-.476-0.155,0.552,0.552,0,0,0-.168.118,4.139,4.139,0,0,1-1.335,1.665,0.651,0.651,0,0,1-.643-0.247,3.494,3.494,0,0,1-.625-1.21c-0.043-.118-0.147-0.464-0.3-1.041-0.044-.176-0.074-0.26-0.08-0.277a10.851,10.851,0,0,0-.352-1.194,1.322,1.322,0,0,0-.436-0.627,0.7,0.7,0,0,0-.675-0.122,0.65,0.65,0,0,0-.423.419,3.442,3.442,0,0,0,.012,1.259,6.869,6.869,0,0,1,.1,1.358,7.569,7.569,0,0,1-.316,1.625,2.5,2.5,0,0,1-1.166,1.814,0.55,0.55,0,0,1-.744-0.421C15.559,33,15.4,32.864,15.193,32.936A0.429,0.429,0,0,0,14.943,33.466ZM22.5,30.755a0.315,0.315,0,0,1,.02.108l0.006,0.017L22.531,30.9a1.328,1.328,0,0,0,.5.644,1.288,1.288,0,0,0,1.222.154c0.8-.286,1.356-1.232,1.706-2.869a7.272,7.272,0,0,0,.036-2.939,3.764,3.764,0,0,1-.059-0.591c0.085-.031.19,0.1,0.306,0.426l0.018,0.051c0.1,0.288.244,0.734,0.4,1.329,0.132,0.527.255,0.922,0.352,1.193C27.528,29.735,28.19,30.3,29,30.009a2.758,2.758,0,0,0,1.27-.991A4.234,4.234,0,0,0,30.809,28a0.409,0.409,0,0,0,.043-0.36,0.3,0.3,0,0,0-.476-0.154,0.533,0.533,0,0,0-.168.117,4.133,4.133,0,0,1-1.335,1.665,0.651,0.651,0,0,1-.643-0.247,3.493,3.493,0,0,1-.625-1.21c-0.043-.118-0.147-0.464-0.3-1.041-0.044-.176-0.074-0.26-0.08-0.277a10.79,10.79,0,0,0-.352-1.193,1.319,1.319,0,0,0-.436-0.628,0.7,0.7,0,0,0-.675-0.122,0.651,0.651,0,0,0-.423.419,3.443,3.443,0,0,0,.012,1.259,6.854,6.854,0,0,1,.1,1.359,7.55,7.55,0,0,1-.316,1.625,2.5,2.5,0,0,1-1.166,1.815,0.55,0.55,0,0,1-.744-0.422c-0.116-.322-0.278-0.455-0.482-0.382A0.428,0.428,0,0,0,22.5,30.755ZM33.3,22.9a0.408,0.408,0,0,0,.071-0.389,0.355,0.355,0,0,0-.505-0.182,7.135,7.135,0,0,0-2.475,3.6,4.192,4.192,0,0,0-.078,2.343,0.713,0.713,0,0,0,.593.534,1.964,1.964,0,0,0,.971-0.119,3.563,3.563,0,0,0,1.7-1.508,10.922,10.922,0,0,0,.885-1.637,0.88,0.88,0,0,0,.062.226l0.012,0.034,0.03,0.084a2.4,2.4,0,0,0,.922,1.238,1.155,1.155,0,0,0,1.113.118,3.138,3.138,0,0,0,1.388-1.091,2.819,2.819,0,0,0,.547-0.981,0.136,0.136,0,0,0-.013-0.091l-0.006-.017-0.006-.017a0.386,0.386,0,0,0-.216-0.229A0.434,0.434,0,0,0,38,24.81a0.283,0.283,0,0,0-.178.2,2.07,2.07,0,0,1-.338.657,2.606,2.606,0,0,1-1.13.9,1.364,1.364,0,0,1-.283.063,0.547,0.547,0,0,1-.282-0.147,1.965,1.965,0,0,1-.567-0.887,6.756,6.756,0,0,1-.192-0.7l-0.18-.662a4.994,4.994,0,0,0-.14-1.882,0.862,0.862,0,0,0-.24-0.3,0.5,0.5,0,0,0-.424-0.116,0.445,0.445,0,0,0-.177.465,10.741,10.741,0,0,0,.227,1.7,7.411,7.411,0,0,1-.992,2.461,3.179,3.179,0,0,1-1.5,1.458c-0.322.116-.528,0.075-0.607-0.146a2.657,2.657,0,0,1-.074-1.006A5.934,5.934,0,0,1,33.3,22.9Zm3.935-.914a0.727,0.727,0,0,1,.151-0.379,1.25,1.25,0,0,1,.593-0.481c0.356-.128.562-0.087,0.641,0.134a2.867,2.867,0,0,1-.028,1.043L38.458,23.48a3.791,3.791,0,0,0,.136,1.5,1.351,1.351,0,0,0,.862.858A2.02,2.02,0,0,0,40.8,25.8a3.1,3.1,0,0,0,1.428-1.086,4.8,4.8,0,0,0,.554-0.907,0.366,0.366,0,0,0,.011-0.291,0.263,0.263,0,0,0-.386-0.168,0.578,0.578,0,0,0-.247.165,1.143,1.143,0,0,0-.149.225,4.726,4.726,0,0,1-.864,1.056,2.208,2.208,0,0,1-.624.339,1.249,1.249,0,0,1-.848.036,0.625,0.625,0,0,1-.4-0.412,6.421,6.421,0,0,1,.042-2.655,3,3,0,0,0-.007-1.3,0.808,0.808,0,0,0-.662-0.565,1.429,1.429,0,0,0-.659.083,2.421,2.421,0,0,0-1.147.909,1.178,1.178,0,0,0-.307,1.009,0.292,0.292,0,0,0,.431.19A0.386,0.386,0,0,0,37.234,21.987Zm6.356-3.447a2.567,2.567,0,0,0-.568.337,3.21,3.21,0,0,0-.74,1.031,4.831,4.831,0,0,0-.536,2.239,3.516,3.516,0,0,0,.16,1.033,1.815,1.815,0,0,0,1.458,1.237,3.957,3.957,0,0,0,1.959-.244,6.392,6.392,0,0,0,1.693-.932,5.277,5.277,0,0,0,1.352-1.4,0.283,0.283,0,0,0,.04-0.262,0.4,0.4,0,0,0-.256-0.234,0.48,0.48,0,0,0-.268,0,0.292,0.292,0,0,0-.156.152,5.523,5.523,0,0,1-2.619,2.03,3.865,3.865,0,0,1-1.447.232,6.084,6.084,0,0,0,.888-1.524,3.891,3.891,0,0,0,.092-2.73A1.174,1.174,0,0,0,43.589,18.54Zm0.431,1.414a4.109,4.109,0,0,1-1.07,3.521,1.35,1.35,0,0,1-.377-0.572,2.508,2.508,0,0,1-.133-0.851,4.2,4.2,0,0,1,.657-2.168,1.259,1.259,0,0,1,.473-0.5,0.254,0.254,0,0,1,.305.159,0.87,0.87,0,0,1,.1.288l0.03,0.085Zm2.565-2.336a20.955,20.955,0,0,0,.687,2.393q0.274,0.763.525,1.3c0.342,0.739.55,1.161,0.639,1.3a0.309,0.309,0,0,0,.419.155,0.355,0.355,0,0,0,.222-0.5c-0.31-.6-0.578-1.132-0.776-1.578l0.322-.115,0.881-.316a5.012,5.012,0,0,0,1.127-.538,6.464,6.464,0,0,0,.287.585,2.074,2.074,0,0,0,.9.846,1.8,1.8,0,0,0,1.53.159,3.662,3.662,0,0,0,1.81-2.046A0.306,0.306,0,0,0,55.211,19a0.351,0.351,0,0,0-.233-0.222,0.316,0.316,0,0,0-.257-0.023,0.376,0.376,0,0,0-.212.21,3.078,3.078,0,0,1-1.425,1.678,1.035,1.035,0,0,1-.764-0.051,2.03,2.03,0,0,1-.718-0.508,5.088,5.088,0,0,1-.457-1.061,3.8,3.8,0,0,0,.078-0.85,4.273,4.273,0,0,0-.227-1.486,1.456,1.456,0,0,0-.506-0.717,0.342,0.342,0,0,0-.125.026,0.918,0.918,0,0,0-.383.96,7.282,7.282,0,0,0,.382,2.024,3.945,3.945,0,0,1-1.153.624l-0.169.06-0.254.092L48.38,19.9l-0.153.055-0.186.067-0.091-.255q-0.283-.788-0.573-1.917c-0.056-.209-0.076-0.317-0.082-0.334a0.637,0.637,0,0,0-.136-0.219,0.285,0.285,0,0,0-.321-0.095A0.47,0.47,0,0,0,46.585,17.618Zm11.059-3.451a0.408,0.408,0,0,0,.071-0.389A0.354,0.354,0,0,0,57.21,13.6a7.133,7.133,0,0,0-2.475,3.6,4.194,4.194,0,0,0-.078,2.343,0.712,0.712,0,0,0,.593.533,1.965,1.965,0,0,0,.971-0.119,3.561,3.561,0,0,0,1.7-1.508,10.955,10.955,0,0,0,.885-1.638,0.876,0.876,0,0,0,.062.226l0.012,0.034,0.031,0.085a2.4,2.4,0,0,0,.922,1.238,1.155,1.155,0,0,0,1.113.117,3.137,3.137,0,0,0,1.388-1.091,2.814,2.814,0,0,0,.547-0.981,0.134,0.134,0,0,0-.014-0.09l-0.006-.017-0.006-.017a0.381,0.381,0,0,0-.216-0.229,0.428,0.428,0,0,0-.291-0.011,0.282,0.282,0,0,0-.178.2,2.071,2.071,0,0,1-.338.657,2.594,2.594,0,0,1-1.13.9,1.439,1.439,0,0,1-.283.064,0.554,0.554,0,0,1-.282-0.147,1.972,1.972,0,0,1-.567-0.887,6.719,6.719,0,0,1-.192-0.7L59.2,15.5a4.993,4.993,0,0,0-.14-1.882,0.869,0.869,0,0,0-.24-0.3,0.5,0.5,0,0,0-.424-0.115,0.445,0.445,0,0,0-.177.465,10.751,10.751,0,0,0,.226,1.7,7.4,7.4,0,0,1-.992,2.46,3.183,3.183,0,0,1-1.5,1.458c-0.322.115-.528,0.074-0.607-0.146a2.659,2.659,0,0,1-.074-1.007A5.934,5.934,0,0,1,57.644,14.166ZM13.677,46.539a0.445,0.445,0,0,0-.5-0.279,0.322,0.322,0,0,0-.2.415,14.8,14.8,0,0,0,.7,1.909,18.479,18.479,0,0,0,1.366,2.953,0.556,0.556,0,0,0,.617.333,0.947,0.947,0,0,0,.43-0.881,22.376,22.376,0,0,1,.7-4.133,0.439,0.439,0,0,1,.129-0.333c0.051-.019.1,0.077,0.171,0.264,0.567,1.155.854,1.74,0.854,1.74A12.96,12.96,0,0,0,18.915,50a0.935,0.935,0,0,0,1.014.267,2.38,2.38,0,0,0,1.1-.931,3.5,3.5,0,0,0,.571-1.181,0.108,0.108,0,0,1-.007-0.074,0.241,0.241,0,0,0-.013-0.09c-0.091-.254-0.219-0.343-0.405-0.276a0.493,0.493,0,0,0-.266.325,2.221,2.221,0,0,1-1.088,1.5,0.527,0.527,0,0,1-.536-0.267,15.122,15.122,0,0,1-1.229-2.2c-0.227-.473-0.424-0.862-0.578-1.131a0.794,0.794,0,0,0-.794-0.346,0.249,0.249,0,0,0-.174.1,1.854,1.854,0,0,0-.251.473,16.48,16.48,0,0,0-.8,3.959c0,0.154-.012.233-0.006,0.25,0,0.04,0,.057-0.016.063a0.118,0.118,0,0,1-.048.133,0.438,0.438,0,0,1-.171-0.264C14.585,48.91,14.072,47.64,13.677,46.539Zm10.311-3.3a0.408,0.408,0,0,0,.071-0.389,0.354,0.354,0,0,0-.505-0.182,7.131,7.131,0,0,0-2.475,3.6A4.191,4.191,0,0,0,21,48.617a0.712,0.712,0,0,0,.593.533,1.963,1.963,0,0,0,.971-0.119,3.56,3.56,0,0,0,1.7-1.507,10.966,10.966,0,0,0,.885-1.638,0.876,0.876,0,0,0,.062.226l0.012,0.034,0.03,0.085a2.392,2.392,0,0,0,.922,1.238,1.152,1.152,0,0,0,1.113.118,3.138,3.138,0,0,0,1.388-1.091,2.813,2.813,0,0,0,.547-0.981,0.133,0.133,0,0,0-.013-0.09L29.2,45.407,29.2,45.389a0.381,0.381,0,0,0-.216-0.228,0.428,0.428,0,0,0-.291-0.011,0.282,0.282,0,0,0-.178.2,2.067,2.067,0,0,1-.338.657,2.6,2.6,0,0,1-1.13.9,1.437,1.437,0,0,1-.283.064,0.554,0.554,0,0,1-.282-0.147,1.972,1.972,0,0,1-.567-0.887,6.713,6.713,0,0,1-.192-0.7l-0.18-.663A4.993,4.993,0,0,0,25.4,42.7a0.867,0.867,0,0,0-.24-0.3,0.5,0.5,0,0,0-.424-0.115,0.443,0.443,0,0,0-.177.465,10.75,10.75,0,0,0,.227,1.7,7.4,7.4,0,0,1-.992,2.46,3.184,3.184,0,0,1-1.5,1.458c-0.322.115-.528,0.074-0.607-0.146a2.664,2.664,0,0,1-.074-1.006A5.935,5.935,0,0,1,23.988,43.241Zm8.532,2.142a0.6,0.6,0,0,0,.078.163,0.461,0.461,0,0,0,.059.113,6.142,6.142,0,0,0,.063,4.014,3.786,3.786,0,0,0,1.051,1.65,1.1,1.1,0,0,0,1.14.3c0.695-.249.808-1.055,0.327-2.393a23.957,23.957,0,0,0-1.814-3.616A4.317,4.317,0,0,1,34.7,44.006a0.342,0.342,0,0,0,.156-0.42,0.3,0.3,0,0,0-.437-0.206l-0.085.031a5.336,5.336,0,0,0-1.278,1.4A0.742,0.742,0,0,1,33,44.6a1.715,1.715,0,0,0,.037-1.123c-0.1-.288-0.254-0.387-0.457-0.315a0.619,0.619,0,0,0-.3.378,2.689,2.689,0,0,0-.029.986,2.585,2.585,0,0,1-1.416,1.12,1.968,1.968,0,0,1-1.045.126,0.809,0.809,0,0,1-.662-0.566,3.314,3.314,0,0,1-.16-1.033,4.188,4.188,0,0,1,.184-1.405,2.764,2.764,0,0,1,1.612-2.012,1.166,1.166,0,0,1,1.23.228,1.937,1.937,0,0,1,.549.836l0.024,0.069,0.067,0.186a0.721,0.721,0,0,1,.04.272,0.809,0.809,0,0,0,.029.3,0.3,0.3,0,0,0,.438.207c0.322-.116.347-0.527,0.085-1.255a2.558,2.558,0,0,0-.79-1.189,1.8,1.8,0,0,0-1.881-.338A3.038,3.038,0,0,0,29,41.425a5.41,5.41,0,0,0-.722,2.305,4.305,4.305,0,0,0,.188,1.75,1.387,1.387,0,0,0,1.179.993,2.6,2.6,0,0,0,1.421-.146A3.821,3.821,0,0,0,32.52,45.383Zm0.619,1.193a24.748,24.748,0,0,1,1.421,2.9c0.322,0.9.345,1.387,0.091,1.478a0.561,0.561,0,0,1-.576-0.271,3.678,3.678,0,0,1-.672-1.232A5.66,5.66,0,0,1,33.139,46.576Zm5.927-8.745a0.408,0.408,0,0,0,.071-0.389,0.355,0.355,0,0,0-.505-0.182,7.134,7.134,0,0,0-2.475,3.6,4.19,4.19,0,0,0-.078,2.343,0.711,0.711,0,0,0,.593.533,1.963,1.963,0,0,0,.971-0.118,3.567,3.567,0,0,0,1.7-1.508,10.93,10.93,0,0,0,.885-1.637,0.892,0.892,0,0,0,.062.226L40.3,40.736l0.03,0.085a2.4,2.4,0,0,0,.922,1.238,1.153,1.153,0,0,0,1.113.117,3.135,3.135,0,0,0,1.388-1.09A2.819,2.819,0,0,0,44.3,40.1a0.135,0.135,0,0,0-.014-0.091L44.281,40l-0.006-.017a0.386,0.386,0,0,0-.216-0.229,0.433,0.433,0,0,0-.291-0.01,0.283,0.283,0,0,0-.178.2,2.065,2.065,0,0,1-.338.656,2.6,2.6,0,0,1-1.13.9,1.364,1.364,0,0,1-.283.063,0.553,0.553,0,0,1-.282-0.147,1.964,1.964,0,0,1-.567-0.887,6.789,6.789,0,0,1-.192-0.7l-0.18-.662a4.99,4.99,0,0,0-.14-1.882,0.86,0.86,0,0,0-.24-0.3,0.5,0.5,0,0,0-.424-0.116,0.445,0.445,0,0,0-.177.465,10.741,10.741,0,0,0,.227,1.7,7.4,7.4,0,0,1-.992,2.46,3.179,3.179,0,0,1-1.5,1.458c-0.322.116-.528,0.075-0.607-0.146a2.659,2.659,0,0,1-.074-1.007A5.935,5.935,0,0,1,39.066,37.831Zm6-2.824a2.569,2.569,0,0,0-.568.338,3.2,3.2,0,0,0-.74,1.03,4.838,4.838,0,0,0-.536,2.239,3.523,3.523,0,0,0,.16,1.033,1.816,1.816,0,0,0,1.458,1.237A3.966,3.966,0,0,0,46.8,40.64a6.437,6.437,0,0,0,1.693-.932,5.287,5.287,0,0,0,1.352-1.4,0.284,0.284,0,0,0,.04-0.263,0.4,0.4,0,0,0-.256-0.233,0.472,0.472,0,0,0-.268,0,0.291,0.291,0,0,0-.156.151,5.512,5.512,0,0,1-2.619,2.03,3.851,3.851,0,0,1-1.447.233,6.093,6.093,0,0,0,.888-1.523,3.893,3.893,0,0,0,.092-2.731A1.176,1.176,0,0,0,45.071,35.007ZM45.5,36.421a4.11,4.11,0,0,1-1.07,3.521,1.348,1.348,0,0,1-.377-0.573,2.5,2.5,0,0,1-.133-0.851,4.2,4.2,0,0,1,.657-2.168,1.255,1.255,0,0,1,.473-0.494,0.254,0.254,0,0,1,.305.158,0.872,0.872,0,0,1,.1.288l0.03,0.085Zm16.51-2.71a0.38,0.38,0,0,0-.175-0.435,0.336,0.336,0,0,0-.286-0.05,0.494,0.494,0,0,0-.173.158,6.234,6.234,0,0,1-.864,1.591,1.186,1.186,0,0,1-.479.478,0.7,0.7,0,0,1-.514-0.046,2.88,2.88,0,0,1-.934-1,10.287,10.287,0,0,1-1.238-2.33,1.267,1.267,0,0,0-.43-0.611,0.546,0.546,0,0,0-.538-0.113,1.113,1.113,0,0,0-.493.6,13.373,13.373,0,0,0-.867,3.448L55,35.613l-0.048.4a0.268,0.268,0,0,1-.03.183,2.031,2.031,0,0,1-.545-0.665,20.666,20.666,0,0,1-1.106-1.8A2.374,2.374,0,0,0,52.6,32.86a0.51,0.51,0,0,0-.407-0.122,0.668,0.668,0,0,0-.3.337l-0.043.092a10.926,10.926,0,0,0-.811,2.165,18.235,18.235,0,0,0-.521,2.387,0.554,0.554,0,0,1-.084.3l-0.017.006c-0.011.023-.069-0.032-0.152-0.156a0.193,0.193,0,0,0-.047-0.078,33,33,0,0,1-1.482-3.543L48.6,33.874a0.381,0.381,0,0,0-.2-0.234,0.263,0.263,0,0,0-.263-0.04,0.39,0.39,0,0,0-.228.484c0.068,0.243.166,0.515,0.275,0.82l0.1,0.287a14.051,14.051,0,0,0,1.6,3.387,0.877,0.877,0,0,0,.764.529,0.438,0.438,0,0,0,.223-0.233,4.2,4.2,0,0,0,.275-0.94A25.128,25.128,0,0,1,52.245,34a0.41,0.41,0,0,1,.16-0.249,0.365,0.365,0,0,1,.245.257,18.1,18.1,0,0,0,2.241,3.366,0.4,0.4,0,0,0,.372.077,0.316,0.316,0,0,0,.184-0.18,2.9,2.9,0,0,0,.164-0.824c0.135-1.062.266-1.818,0.359-2.252a9.047,9.047,0,0,1,.5-1.708,0.227,0.227,0,0,1,.1-0.151l0.017-.006a0.109,0.109,0,0,1,.087.084,0.135,0.135,0,0,1,.047.079,11.137,11.137,0,0,0,1.719,2.98,1.516,1.516,0,0,0,1.618.777,2.313,2.313,0,0,0,.878-0.7A7.512,7.512,0,0,0,62.011,33.711Z"/>
</svg>
