<svg xmlns="http://www.w3.org/2000/svg" width="69" height="57" viewBox="0 0 69 57">
  <defs>
    <style>
      .cls-1 {
        fill: #393637;
        fill-rule: evenodd;
      }
    </style>
  </defs>
  <path id="Узнать_что_будет_дальше" data-name="Узнать что будет дальше" class="cls-1" d="M9.554,15.427c0.025,1.081.123,2.156,0.249,3.2a18.54,18.54,0,0,0,.959,3.845,9.838,9.838,0,0,0,1.382,2.679,0.455,0.455,0,0,0,.447.127,0.339,0.339,0,0,0,.176-0.523,0.257,0.257,0,0,0-.076-0.106,10.1,10.1,0,0,1-1.233-2.37,20.845,20.845,0,0,1-1.106-5.323c-0.078-.909-0.121-1.831-0.119-2.731A13.272,13.272,0,0,0,11.12,11.9a11.348,11.348,0,0,0,.574-4.319,0.613,0.613,0,0,0-.775-0.507,1.649,1.649,0,0,0-.761,1.077,11.613,11.613,0,0,0-.517,3.3L9.6,12.042c-0.041.684-.077,1.386-0.072,2.092a10.211,10.211,0,0,1-.764,1.23A3.359,3.359,0,0,1,7.375,16.5a1.106,1.106,0,0,1-.9-0.155,5.721,5.721,0,0,1-1.791-1.634,11.921,11.921,0,0,1-1.626-3.147c-0.152-.423-0.333-0.607-0.553-0.528-0.237.085-.283,0.331-0.143,0.721A10.078,10.078,0,0,0,5.39,16.4c0.928,0.719,1.651.976,2.21,0.775A4.521,4.521,0,0,0,9.554,15.427Zm1.523-7.644A2.8,2.8,0,0,1,11,9.055a19.444,19.444,0,0,1-.588,2.679l-0.08.258a14.872,14.872,0,0,1,.423-3.461,2.588,2.588,0,0,1,.279-0.769Zm6.187,7.23a5.81,5.81,0,0,1,1.648-.151,0.9,0.9,0,0,1,.827.545,0.786,0.786,0,0,1-.193.8,2.422,2.422,0,0,1-1.061.668,2.387,2.387,0,0,1-1.318.167,1.95,1.95,0,0,1-.918-0.531,0.3,0.3,0,0,0-.407-0.122c-0.254.091-.343,0.218-0.276,0.4a0.221,0.221,0,0,0,.053.1L15.644,16.9a2.292,2.292,0,0,0,.444.49,1.82,1.82,0,0,0,1.052.427,3.764,3.764,0,0,0,1.606-.271,2.87,2.87,0,0,0,1.446-1.035,1.428,1.428,0,0,0,.22-1.361,1.5,1.5,0,0,0-1.23-.974,4.868,4.868,0,0,0-1.718.062,1.925,1.925,0,0,0,.6-1.745,1.263,1.263,0,0,0-.854-0.726,1.065,1.065,0,0,0-.74.016,1.57,1.57,0,0,0-.7.5,5.646,5.646,0,0,0-.364.532l-0.143.242a0.409,0.409,0,0,0-.043.36,0.362,0.362,0,0,0,.427.229,0.883,0.883,0,0,0,.339-0.389,1.672,1.672,0,0,1,.694-0.785,0.492,0.492,0,0,1,.325,0,0.556,0.556,0,0,1,.383.322,1.708,1.708,0,0,1-.712,1.269,0.7,0.7,0,0,0-.258.666,0.483,0.483,0,0,0,.394.3A0.878,0.878,0,0,0,17.265,15.013Zm2.91-4.2a20.92,20.92,0,0,0,.687,2.393q0.274,0.763.525,1.3c0.341,0.738.55,1.161,0.639,1.3a0.308,0.308,0,0,0,.419.155,0.355,0.355,0,0,0,.222-0.5c-0.31-.6-0.578-1.131-0.776-1.578l0.322-.115,0.881-.316a4.97,4.97,0,0,0,1.127-.538,6.421,6.421,0,0,0,.287.585,2.069,2.069,0,0,0,.9.846,1.8,1.8,0,0,0,1.53.159,3.663,3.663,0,0,0,1.81-2.045,0.307,0.307,0,0,0,.056-0.269,0.351,0.351,0,0,0-.233-0.223,0.316,0.316,0,0,0-.257-0.022,0.376,0.376,0,0,0-.212.21,3.078,3.078,0,0,1-1.426,1.678,1.031,1.031,0,0,1-.764-0.051,2.03,2.03,0,0,1-.718-0.508,5.073,5.073,0,0,1-.457-1.06,3.8,3.8,0,0,0,.077-0.85,4.272,4.272,0,0,0-.227-1.487,1.458,1.458,0,0,0-.506-0.717,0.36,0.36,0,0,0-.125.026,0.918,0.918,0,0,0-.383.96,7.272,7.272,0,0,0,.382,2.024A3.925,3.925,0,0,1,22.8,12.8l-0.169.061-0.254.091-0.407.146-0.152.055-0.186.067-0.091-.255q-0.283-.787-0.573-1.917c-0.056-.209-0.075-0.317-0.082-0.334a0.634,0.634,0,0,0-.136-0.219,0.285,0.285,0,0,0-.321-0.1A0.47,0.47,0,0,0,20.174,10.813ZM31.234,7.361A0.408,0.408,0,0,0,31.3,6.972,0.354,0.354,0,0,0,30.8,6.79a7.136,7.136,0,0,0-2.475,3.6,4.192,4.192,0,0,0-.078,2.342,0.711,0.711,0,0,0,.593.533,1.971,1.971,0,0,0,.971-0.118,3.566,3.566,0,0,0,1.7-1.508,10.936,10.936,0,0,0,.885-1.638,0.871,0.871,0,0,0,.062.226l0.012,0.035,0.03,0.085a2.4,2.4,0,0,0,.922,1.238,1.155,1.155,0,0,0,1.113.117,3.132,3.132,0,0,0,1.388-1.091,2.817,2.817,0,0,0,.547-0.98,0.135,0.135,0,0,0-.013-0.091l-0.006-.017L36.442,9.51a0.381,0.381,0,0,0-.216-0.229,0.428,0.428,0,0,0-.291-0.01,0.284,0.284,0,0,0-.178.2,2.067,2.067,0,0,1-.338.657,2.6,2.6,0,0,1-1.13.9,1.382,1.382,0,0,1-.283.064,0.554,0.554,0,0,1-.282-0.147,1.969,1.969,0,0,1-.567-0.887,6.792,6.792,0,0,1-.192-0.7L32.785,8.7a4.991,4.991,0,0,0-.14-1.882,0.861,0.861,0,0,0-.24-0.3A0.5,0.5,0,0,0,31.981,6.4a0.444,0.444,0,0,0-.177.465,10.729,10.729,0,0,0,.227,1.7,7.4,7.4,0,0,1-.992,2.46,3.179,3.179,0,0,1-1.5,1.458c-0.322.115-.528,0.075-0.607-0.146a2.66,2.66,0,0,1-.074-1.006A5.935,5.935,0,0,1,31.234,7.361ZM48.418,5.308a0.38,0.38,0,0,0-.175-0.434,0.337,0.337,0,0,0-.286-0.051,0.5,0.5,0,0,0-.173.158,6.208,6.208,0,0,1-.864,1.591,1.181,1.181,0,0,1-.479.478,0.7,0.7,0,0,1-.514-0.045,2.884,2.884,0,0,1-.934-1,10.27,10.27,0,0,1-1.238-2.33,1.276,1.276,0,0,0-.43-0.611,0.544,0.544,0,0,0-.538-0.113,1.11,1.11,0,0,0-.493.6,13.392,13.392,0,0,0-.867,3.448l-0.018.217-0.048.4a0.267,0.267,0,0,1-.03.183,2.02,2.02,0,0,1-.545-0.665,20.671,20.671,0,0,1-1.106-1.8,2.361,2.361,0,0,0-.675-0.867A0.508,0.508,0,0,0,38.6,4.335a0.675,0.675,0,0,0-.3.337l-0.043.093a10.884,10.884,0,0,0-.811,2.165,18.165,18.165,0,0,0-.521,2.387,0.552,0.552,0,0,1-.084.3l-0.017.006a0.243,0.243,0,0,1-.152-0.156,0.2,0.2,0,0,0-.047-0.079,33,33,0,0,1-1.482-3.543L35.01,5.47a0.38,0.38,0,0,0-.2-0.234A0.261,0.261,0,0,0,34.548,5.2a0.39,0.39,0,0,0-.228.483c0.068,0.243.166,0.515,0.275,0.82l0.1,0.288a14.046,14.046,0,0,0,1.6,3.386,0.877,0.877,0,0,0,.764.53,0.44,0.44,0,0,0,.222-0.233,4.222,4.222,0,0,0,.275-0.941,25.158,25.158,0,0,1,1.1-3.932,0.407,0.407,0,0,1,.16-0.248,0.361,0.361,0,0,1,.245.256A18.073,18.073,0,0,0,41.3,8.973a0.4,0.4,0,0,0,.372.077,0.317,0.317,0,0,0,.184-0.181,2.9,2.9,0,0,0,.163-0.824c0.135-1.062.266-1.817,0.359-2.251a9.053,9.053,0,0,1,.5-1.709,0.227,0.227,0,0,1,.1-0.151l0.017-.006a0.108,0.108,0,0,1,.087.083,0.138,0.138,0,0,1,.047.079A11.125,11.125,0,0,0,44.842,7.07a1.517,1.517,0,0,0,1.618.778,2.316,2.316,0,0,0,.878-0.7A7.513,7.513,0,0,0,48.418,5.308ZM47.837,2.953c-0.1-.482-0.191-1.118-0.293-1.884A0.354,0.354,0,0,0,47.082.8a0.342,0.342,0,0,0-.19.163,1.084,1.084,0,0,0-.005.519c0.018,0.051.026,0.125,0.051,0.25a22.17,22.17,0,0,0,.575,2.988A2.414,2.414,0,0,0,48.771,6.2a1.747,1.747,0,0,0,1.294.034,1.7,1.7,0,0,0,1.1-1.2A2.662,2.662,0,0,0,51.1,3.312a2.422,2.422,0,0,0-.7-1.048A1.435,1.435,0,0,0,48.892,2a2.058,2.058,0,0,0-.78.49A0.887,0.887,0,0,0,47.837,2.953ZM48.154,4.37a1.006,1.006,0,0,1-.027-0.449,1.25,1.25,0,0,1,.187-0.545,1.5,1.5,0,0,1,.821-0.7,0.835,0.835,0,0,1,.6.015,1.425,1.425,0,0,1,.7.879,2.013,2.013,0,0,1,.084,1.193,1.066,1.066,0,0,1-1.863.458A2.283,2.283,0,0,1,48.154,4.37ZM4.088,37.1a4.235,4.235,0,0,0,.729,1.231,1.442,1.442,0,0,0,1.63.544A2.5,2.5,0,0,0,7.868,37.3a1.293,1.293,0,0,0,.123-0.618,0.317,0.317,0,0,0-.428-0.287,0.447,0.447,0,0,0-.259.4,2.114,2.114,0,0,1-.286.7,1.485,1.485,0,0,1-.8.708,0.709,0.709,0,0,1-.757-0.245,3.285,3.285,0,0,1-.782-1.326l-0.067-.187A2.419,2.419,0,0,1,4.5,36.074a3.39,3.39,0,0,0,.1-0.9,4.707,4.707,0,0,0-.266-1.434c-0.1-.288-0.254-0.387-0.457-0.315a0.3,0.3,0,0,0-.173.158,1.231,1.231,0,0,0-.08.469,8.3,8.3,0,0,0,.148,2.013A2.51,2.51,0,0,1,2.58,37.644,0.733,0.733,0,0,1,1.9,37.506a2.117,2.117,0,0,1-.5-0.871,5.154,5.154,0,0,1-.333-1.622l-0.03-.085c-0.006-.017-0.006-0.017.011-0.023l-0.006-.017L1.03,34.871a0.317,0.317,0,0,0-.45-0.24,0.363,0.363,0,0,0-.236.41A5.577,5.577,0,0,0,.688,36.85a2.893,2.893,0,0,0,.762,1.218,1.3,1.3,0,0,0,1.356.26A2.93,2.93,0,0,0,4.088,37.1ZM19.98,32.51a0.38,0.38,0,0,0-.175-0.434,0.337,0.337,0,0,0-.286-0.051,0.5,0.5,0,0,0-.173.158,6.208,6.208,0,0,1-.864,1.591,1.186,1.186,0,0,1-.479.478,0.7,0.7,0,0,1-.514-0.045,2.883,2.883,0,0,1-.934-1,10.271,10.271,0,0,1-1.238-2.33,1.275,1.275,0,0,0-.43-0.611,0.544,0.544,0,0,0-.538-0.113,1.111,1.111,0,0,0-.493.6A13.393,13.393,0,0,0,12.99,34.2l-0.018.217-0.048.4a0.267,0.267,0,0,1-.03.183,2.021,2.021,0,0,1-.545-0.665,20.671,20.671,0,0,1-1.106-1.8,2.361,2.361,0,0,0-.675-0.867,0.509,0.509,0,0,0-.407-0.122,0.675,0.675,0,0,0-.3.337l-0.043.093a10.88,10.88,0,0,0-.811,2.165,18.18,18.18,0,0,0-.521,2.387,0.551,0.551,0,0,1-.084.3l-0.017.006c-0.011.023-.069-0.032-0.152-0.155a0.2,0.2,0,0,0-.047-0.079A32.977,32.977,0,0,1,6.7,33.046l-0.134-.373a0.38,0.38,0,0,0-.2-0.234,0.261,0.261,0,0,0-.263-0.04,0.39,0.39,0,0,0-.228.483c0.068,0.243.165,0.514,0.275,0.82l0.1,0.288a14.057,14.057,0,0,0,1.6,3.386,0.877,0.877,0,0,0,.764.53,0.443,0.443,0,0,0,.222-0.233,4.193,4.193,0,0,0,.275-0.94,25.117,25.117,0,0,1,1.1-3.932,0.41,0.41,0,0,1,.16-0.249,0.366,0.366,0,0,1,.245.257,18.069,18.069,0,0,0,2.241,3.366,0.4,0.4,0,0,0,.372.077,0.317,0.317,0,0,0,.184-0.181,2.9,2.9,0,0,0,.163-0.824c0.135-1.062.266-1.817,0.359-2.251a9.052,9.052,0,0,1,.5-1.709,0.227,0.227,0,0,1,.1-0.151l0.017-.006a0.109,0.109,0,0,1,.087.083,0.137,0.137,0,0,1,.047.079A11.129,11.129,0,0,0,16.4,34.272a1.517,1.517,0,0,0,1.618.778,2.315,2.315,0,0,0,.878-0.7A7.514,7.514,0,0,0,19.98,32.51Zm-0.385-4.262a0.345,0.345,0,0,0-.164-0.19,0.3,0.3,0,0,0-.234-0.011,0.423,0.423,0,0,0-.283.331,4.956,4.956,0,0,0,.081,3.318,2.4,2.4,0,0,0,1.218,1.476,2.036,2.036,0,0,0,1.607.055,3.728,3.728,0,0,0,2.045-1.978,3.385,3.385,0,0,0,.281-2.683,2.312,2.312,0,0,0-1.09-1.33,2.173,2.173,0,0,0-1.847-.084,1.936,1.936,0,0,0-1.318,2.137c0.108,0.248.242,0.354,0.428,0.287a0.345,0.345,0,0,0,.252-0.415,1.342,1.342,0,0,1,.881-1.33,1.466,1.466,0,0,1,1.278.1,1.81,1.81,0,0,1,.745.957,2.3,2.3,0,0,1-.049,1.624,3.474,3.474,0,0,1-.852,1.358,2.608,2.608,0,0,1-1,.667,1.364,1.364,0,0,1-1.008.017,1.626,1.626,0,0,1-.856-1.051,4.766,4.766,0,0,1-.079-2.994Zm13-3.9A1.663,1.663,0,0,0,32,23.816a1.508,1.508,0,0,0-1.233-.131A1.94,1.94,0,0,0,29.671,25a3.637,3.637,0,0,0,0,2.466,3.1,3.1,0,0,0,.8,1.206,2.794,2.794,0,0,0,1.1.659,2.286,2.286,0,0,0,1.446-.022,1.884,1.884,0,0,0,1.19-1.747,6.545,6.545,0,0,0-.458-2.877,13.511,13.511,0,0,0-4.46-5.765,8.622,8.622,0,0,0,1.268-.359,5.047,5.047,0,0,0,1.656-.824,0.315,0.315,0,0,0,.083-0.355,0.367,0.367,0,0,0-.193-0.217,0.313,0.313,0,0,0-.308,0l-0.017.006a0.17,0.17,0,0,0-.1.053,6.108,6.108,0,0,1-1.6.766,11.464,11.464,0,0,1-1.726.466,3.547,3.547,0,0,0-.919-0.11,0.368,0.368,0,0,0-.2.016,0.6,0.6,0,0,0-.241.182,0.371,0.371,0,0,0-.055.326,0.326,0.326,0,0,0,.278.188,4.163,4.163,0,0,0,.491.034,2.9,2.9,0,0,1,1.27.5,11.237,11.237,0,0,1,1.185,1.01c1.112,1.342,1.793,2.226,2.053,2.63a8.151,8.151,0,0,1,.871,1.735,5.982,5.982,0,0,1,.422,2.508,1.232,1.232,0,0,1-.731,1.161,1.6,1.6,0,0,1-.625.072,1.665,1.665,0,0,1-.942-0.332,2.436,2.436,0,0,1-.846-1.131,3.3,3.3,0,0,1-.174-1.124,3,3,0,0,1,.253-1.161,1.149,1.149,0,0,1,.573-0.589,0.975,0.975,0,0,1,.977.377,0.369,0.369,0,0,0,.459.16,0.324,0.324,0,0,0,.249-0.319,0.357,0.357,0,0,0-.1-0.214Zm2.219-1.275c0.381,0.743.7,1.3,0.933,1.694a7.9,7.9,0,0,0,1.238,1.583A3.5,3.5,0,0,0,38,27a15.164,15.164,0,0,0,.131,3.244,11.553,11.553,0,0,0,.446,2.1,0.36,0.36,0,0,0,.5.279,0.308,0.308,0,0,0,.213-0.421,15.724,15.724,0,0,1-.508-2.534,16.877,16.877,0,0,1-.064-2.578,1.6,1.6,0,0,0,.437-0.061,1.049,1.049,0,0,0,.758-0.712,13.589,13.589,0,0,0,.171-3.735L40.055,21.1a0.35,0.35,0,0,0-.026-0.125,0.316,0.316,0,0,0-.181-0.184,0.367,0.367,0,0,0-.291-0.01,0.354,0.354,0,0,0-.227.273A24.592,24.592,0,0,0,38.07,26.23a2.464,2.464,0,0,1-.532-0.363,5,5,0,0,1-.912-1.05,21.351,21.351,0,0,1-1.157-2.053L35.337,22.5a0.363,0.363,0,0,0-.5-0.222,0.384,0.384,0,0,0-.185.124,0.3,0.3,0,0,0-.021.314l0.191,0.371Zm4.563,0.295q-0.072,2.838-.428,2.966a0.541,0.541,0,0,1-.148.015l-0.017.006A19.922,19.922,0,0,1,39.377,23.37Zm6.834,0.82a0.619,0.619,0,0,0,.078.164,0.463,0.463,0,0,0,.059.112,6.142,6.142,0,0,0,.063,4.014,3.786,3.786,0,0,0,1.051,1.65,1.1,1.1,0,0,0,1.14.3c0.695-.249.807-1.055,0.327-2.393a23.947,23.947,0,0,0-1.813-3.616A4.322,4.322,0,0,1,48.4,22.813a0.342,0.342,0,0,0,.156-0.419,0.3,0.3,0,0,0-.437-0.206l-0.085.031a5.336,5.336,0,0,0-1.278,1.4,0.742,0.742,0,0,1-.056-0.209,1.715,1.715,0,0,0,.037-1.123c-0.1-.288-0.254-0.387-0.457-0.315a0.619,0.619,0,0,0-.3.378,2.689,2.689,0,0,0-.029.986,2.585,2.585,0,0,1-1.416,1.12,1.968,1.968,0,0,1-1.045.126,0.809,0.809,0,0,1-.662-0.566,3.317,3.317,0,0,1-.16-1.033,4.193,4.193,0,0,1,.184-1.405,2.764,2.764,0,0,1,1.612-2.012,1.166,1.166,0,0,1,1.23.228,1.934,1.934,0,0,1,.549.837l0.024,0.068,0.067,0.186a0.723,0.723,0,0,1,.04.273,0.814,0.814,0,0,0,.029.3,0.3,0.3,0,0,0,.438.206c0.322-.116.347-0.526,0.085-1.255a2.556,2.556,0,0,0-.79-1.19,1.8,1.8,0,0,0-1.882-.338,3.038,3.038,0,0,0-1.558,1.363,5.41,5.41,0,0,0-.722,2.305,4.308,4.308,0,0,0,.188,1.75,1.387,1.387,0,0,0,1.179.993,2.6,2.6,0,0,0,1.421-.147A3.819,3.819,0,0,0,46.211,24.19Zm0.619,1.193a24.748,24.748,0,0,1,1.421,2.9c0.322,0.9.345,1.387,0.09,1.479a0.559,0.559,0,0,1-.576-0.271,3.675,3.675,0,0,1-.672-1.232A5.66,5.66,0,0,1,46.831,25.382Zm4.324-8.839a2.566,2.566,0,0,0-.567.337,3.211,3.211,0,0,0-.74,1.031,4.835,4.835,0,0,0-.536,2.239,3.52,3.52,0,0,0,.16,1.033A1.815,1.815,0,0,0,50.93,22.42a3.958,3.958,0,0,0,1.959-.244,6.392,6.392,0,0,0,1.693-.933,5.277,5.277,0,0,0,1.352-1.4,0.283,0.283,0,0,0,.04-0.262,0.4,0.4,0,0,0-.256-0.234,0.478,0.478,0,0,0-.268,0,0.287,0.287,0,0,0-.156.151,5.523,5.523,0,0,1-2.619,2.03,3.864,3.864,0,0,1-1.447.232,6.082,6.082,0,0,0,.888-1.523,3.892,3.892,0,0,0,.092-2.73A1.175,1.175,0,0,0,51.155,16.543Zm0.431,1.414a4.11,4.11,0,0,1-1.07,3.521,1.354,1.354,0,0,1-.377-0.573A2.508,2.508,0,0,1,50,20.055a4.2,4.2,0,0,1,.657-2.168,1.259,1.259,0,0,1,.473-0.5,0.254,0.254,0,0,1,.305.159,0.868,0.868,0,0,1,.1.288l0.03,0.085Zm16.51-2.71a0.38,0.38,0,0,0-.175-0.435,0.34,0.34,0,0,0-.286-0.051,0.5,0.5,0,0,0-.173.158,6.224,6.224,0,0,1-.864,1.592,1.182,1.182,0,0,1-.479.478,0.7,0.7,0,0,1-.514-0.045,2.884,2.884,0,0,1-.934-1,10.268,10.268,0,0,1-1.238-2.33A1.275,1.275,0,0,0,63,13a0.546,0.546,0,0,0-.538-0.113,1.111,1.111,0,0,0-.493.6,13.392,13.392,0,0,0-.867,3.448l-0.018.217-0.048.4a0.266,0.266,0,0,1-.03.183,2.016,2.016,0,0,1-.545-0.665,20.62,20.62,0,0,1-1.106-1.8,2.36,2.36,0,0,0-.675-0.867,0.5,0.5,0,0,0-.407-0.122,0.668,0.668,0,0,0-.3.337l-0.043.093a10.884,10.884,0,0,0-.811,2.165,18.166,18.166,0,0,0-.521,2.387,0.55,0.55,0,0,1-.084.3L56.5,19.56A0.243,0.243,0,0,1,56.35,19.4a0.2,0.2,0,0,0-.047-0.079,33,33,0,0,1-1.481-3.543l-0.134-.373a0.38,0.38,0,0,0-.2-0.234,0.261,0.261,0,0,0-.263-0.039,0.389,0.389,0,0,0-.228.483c0.068,0.244.166,0.515,0.275,0.82l0.1,0.288a14.045,14.045,0,0,0,1.6,3.386,0.878,0.878,0,0,0,.764.53,0.441,0.441,0,0,0,.223-0.233,4.233,4.233,0,0,0,.275-0.941,25.165,25.165,0,0,1,1.1-3.932,0.407,0.407,0,0,1,.159-0.248,0.363,0.363,0,0,1,.245.256,18.062,18.062,0,0,0,2.241,3.366,0.4,0.4,0,0,0,.372.077,0.317,0.317,0,0,0,.184-0.181,2.9,2.9,0,0,0,.164-0.824c0.135-1.062.266-1.817,0.359-2.251a9.053,9.053,0,0,1,.5-1.709,0.228,0.228,0,0,1,.1-0.151l0.017-.006a0.108,0.108,0,0,1,.087.083,0.137,0.137,0,0,1,.047.079,11.116,11.116,0,0,0,1.719,2.979,1.517,1.517,0,0,0,1.618.778,2.307,2.307,0,0,0,.878-0.7A7.518,7.518,0,0,0,68.1,15.247ZM21.72,49.975a0.6,0.6,0,0,0,.078.163,0.463,0.463,0,0,0,.06.113,6.141,6.141,0,0,0,.063,4.014,3.785,3.785,0,0,0,1.051,1.65,1.1,1.1,0,0,0,1.14.3c0.695-.249.808-1.055,0.327-2.393a23.931,23.931,0,0,0-1.814-3.616A4.317,4.317,0,0,1,23.9,48.6a0.342,0.342,0,0,0,.156-0.419,0.3,0.3,0,0,0-.438-0.206L23.538,48a5.337,5.337,0,0,0-1.278,1.4A0.74,0.74,0,0,1,22.2,49.19a1.714,1.714,0,0,0,.037-1.122c-0.1-.288-0.254-0.387-0.457-0.315a0.619,0.619,0,0,0-.3.378,2.691,2.691,0,0,0-.029.986,2.584,2.584,0,0,1-1.415,1.12,1.968,1.968,0,0,1-1.045.126,0.809,0.809,0,0,1-.662-0.566,3.317,3.317,0,0,1-.16-1.033,4.193,4.193,0,0,1,.184-1.405,2.764,2.764,0,0,1,1.611-2.012,1.166,1.166,0,0,1,1.23.228,1.938,1.938,0,0,1,.549.836l0.024,0.069,0.067,0.186a0.719,0.719,0,0,1,.04.272,0.813,0.813,0,0,0,.03.3,0.3,0.3,0,0,0,.438.207c0.322-.116.347-0.527,0.085-1.255a2.557,2.557,0,0,0-.79-1.189,1.8,1.8,0,0,0-1.881-.338A3.039,3.039,0,0,0,18.2,46.018a5.412,5.412,0,0,0-.722,2.305,4.305,4.305,0,0,0,.188,1.75,1.386,1.386,0,0,0,1.179.993,2.6,2.6,0,0,0,1.421-.147A3.812,3.812,0,0,0,21.72,49.975Zm0.62,1.193a24.71,24.71,0,0,1,1.421,2.9c0.322,0.9.345,1.388,0.091,1.478a0.561,0.561,0,0,1-.576-0.271,3.677,3.677,0,0,1-.672-1.232A5.658,5.658,0,0,1,22.34,51.168Zm5.927-8.745a0.408,0.408,0,0,0,.071-0.389,0.355,0.355,0,0,0-.505-0.182,7.136,7.136,0,0,0-2.475,3.6,4.194,4.194,0,0,0-.078,2.343,0.711,0.711,0,0,0,.593.533,1.963,1.963,0,0,0,.971-0.118,3.567,3.567,0,0,0,1.7-1.508,10.94,10.94,0,0,0,.885-1.637,0.891,0.891,0,0,0,.062.226L29.5,45.328l0.03,0.084a2.4,2.4,0,0,0,.922,1.238,1.152,1.152,0,0,0,1.113.117,3.134,3.134,0,0,0,1.388-1.09A2.819,2.819,0,0,0,33.5,44.7a0.135,0.135,0,0,0-.014-0.091l-0.006-.017-0.006-.017a0.386,0.386,0,0,0-.216-0.229,0.434,0.434,0,0,0-.291-0.01,0.283,0.283,0,0,0-.178.2,2.064,2.064,0,0,1-.338.656,2.6,2.6,0,0,1-1.13.9,1.373,1.373,0,0,1-.283.063,0.554,0.554,0,0,1-.282-0.147,1.965,1.965,0,0,1-.567-0.887,6.815,6.815,0,0,1-.192-0.7l-0.18-.662a4.988,4.988,0,0,0-.14-1.882,0.861,0.861,0,0,0-.24-0.3,0.5,0.5,0,0,0-.424-0.116,0.445,0.445,0,0,0-.177.466,10.716,10.716,0,0,0,.226,1.7,7.4,7.4,0,0,1-.992,2.46,3.18,3.18,0,0,1-1.5,1.458c-0.322.116-.528,0.075-0.607-0.146a2.659,2.659,0,0,1-.074-1.007A5.935,5.935,0,0,1,28.267,42.423Zm4.364,2.413a0.318,0.318,0,0,1,.02.108l0.006,0.017,0.006,0.017a1.323,1.323,0,0,0,.5.643,1.286,1.286,0,0,0,1.222.155c0.8-.286,1.356-1.233,1.706-2.869a7.274,7.274,0,0,0,.036-2.94,3.767,3.767,0,0,1-.059-0.591c0.085-.03.19,0.1,0.306,0.426l0.018,0.051c0.1,0.288.245,0.735,0.4,1.329,0.132,0.527.254,0.923,0.352,1.194,0.517,1.44,1.179,2.006,1.993,1.714A2.77,2.77,0,0,0,40.4,43.1a4.237,4.237,0,0,0,.535-1.015,0.409,0.409,0,0,0,.043-0.36,0.3,0.3,0,0,0-.476-0.155,0.564,0.564,0,0,0-.168.118A4.137,4.137,0,0,1,39,43.353a0.651,0.651,0,0,1-.644-0.247,3.5,3.5,0,0,1-.626-1.21c-0.042-.118-0.147-0.464-0.3-1.041a2.861,2.861,0,0,0-.081-0.277,10.794,10.794,0,0,0-.352-1.194,1.324,1.324,0,0,0-.436-0.628,0.7,0.7,0,0,0-.675-0.121,0.65,0.65,0,0,0-.423.42,3.442,3.442,0,0,0,.011,1.259,6.855,6.855,0,0,1,.105,1.359,7.581,7.581,0,0,1-.316,1.625,2.5,2.5,0,0,1-1.166,1.814,0.55,0.55,0,0,1-.744-0.421c-0.116-.322-0.278-0.455-0.481-0.383A0.429,0.429,0,0,0,32.63,44.836Zm7.784-5.222c-0.1-.482-0.191-1.118-0.294-1.884a0.355,0.355,0,0,0-.462-0.275,0.343,0.343,0,0,0-.19.164,1.082,1.082,0,0,0-.005.519c0.018,0.051.026,0.124,0.051,0.249a22.122,22.122,0,0,0,.575,2.988,2.415,2.415,0,0,0,1.258,1.481,1.747,1.747,0,0,0,1.294.033,1.692,1.692,0,0,0,1.1-1.2,2.66,2.66,0,0,0-.062-1.718,2.425,2.425,0,0,0-.7-1.049,1.439,1.439,0,0,0-1.509-.262,2.079,2.079,0,0,0-.781.49A0.891,0.891,0,0,0,40.414,39.614Zm0.317,1.417a1.009,1.009,0,0,1-.027-0.449,1.246,1.246,0,0,1,.187-0.545,1.5,1.5,0,0,1,.821-0.7,0.839,0.839,0,0,1,.6.014,1.43,1.43,0,0,1,.7.879,2.015,2.015,0,0,1,.084,1.194,1.066,1.066,0,0,1-1.863.458A2.29,2.29,0,0,1,40.731,41.031Zm8.119-6.05a0.342,0.342,0,0,0-.473-0.251,0.3,0.3,0,0,0-.22.346l0.072,0.682a12.571,12.571,0,0,1-.166,1.723,6.693,6.693,0,0,1-.853,2.583,2.364,2.364,0,0,1-.747.689,0.679,0.679,0,0,1-.77-0.547,42.433,42.433,0,0,1-.769-4.277,0.343,0.343,0,0,0-.473-0.251,0.3,0.3,0,0,0-.221.29,15.8,15.8,0,0,0,.261,1.954c0.177,1.027.344,1.866,0.514,2.551,0.352,0.926.905,1.244,1.651,0.976,1-.358,1.68-1.5,2-3.434L48.9,39.074c0.368,0.92.905,1.244,1.617,0.989,1.186-.426,1.9-1.849,2.13-4.246a4.575,4.575,0,0,0,.159.5l0.036,0.1a3.966,3.966,0,0,0,1.278,1.856,1.124,1.124,0,0,0,1.091.163,2.814,2.814,0,0,0,1.305-1.214l0.2-.3a1.483,1.483,0,0,0,.255-0.569,0.259,0.259,0,0,0-.009-0.13l-0.018-.052a0.277,0.277,0,0,0-.191-0.16,0.439,0.439,0,0,0-.285.006,0.305,0.305,0,0,0-.216.25l-0.242.393A2.271,2.271,0,0,1,54.972,37.7a0.407,0.407,0,0,1-.435-0.093,2.083,2.083,0,0,1-.452-0.564,9.749,9.749,0,0,1-.9-1.876,6.228,6.228,0,0,1-.34-1.428c-0.12-.282-0.271-0.381-0.491-0.3a0.336,0.336,0,0,0-.242.393,14.047,14.047,0,0,1-.173,1.917,8.019,8.019,0,0,1-.829,2.861,2.364,2.364,0,0,1-.746.746,0.679,0.679,0,0,1-.77-0.546C49.219,37.182,48.974,35.912,48.85,34.981Zm8.886-3.8a2.6,2.6,0,0,0-.568.337,3.212,3.212,0,0,0-.74,1.031,4.838,4.838,0,0,0-.536,2.239,3.5,3.5,0,0,0,.16,1.032,1.813,1.813,0,0,0,1.458,1.237,3.955,3.955,0,0,0,1.959-.243,6.419,6.419,0,0,0,1.693-.933,5.286,5.286,0,0,0,1.352-1.4,0.284,0.284,0,0,0,.04-0.263,0.4,0.4,0,0,0-.256-0.233,0.478,0.478,0,0,0-.268,0,0.287,0.287,0,0,0-.156.151,5.513,5.513,0,0,1-2.619,2.03,3.867,3.867,0,0,1-1.447.233,6.1,6.1,0,0,0,.888-1.524,3.892,3.892,0,0,0,.092-2.73A1.175,1.175,0,0,0,57.736,31.18Zm0.431,1.414a4.11,4.11,0,0,1-1.07,3.521,1.35,1.35,0,0,1-.378-0.572,2.5,2.5,0,0,1-.133-0.851,4.2,4.2,0,0,1,.657-2.168,1.249,1.249,0,0,1,.473-0.494,0.254,0.254,0,0,1,.306.158,0.873,0.873,0,0,1,.1.288l0.03,0.085Z"/>
</svg>
