<?xml version="1.0" encoding="utf-8"?>
<!-- Generator: Adobe Illustrator 21.1.0, SVG Export Plug-In . SVG Version: 6.00 Build 0)  -->
<svg version="1.1" id="Слой_1" xmlns="http://www.w3.org/2000/svg" xmlns:xlink="http://www.w3.org/1999/xlink" x="0px" y="0px"
	 viewBox="0 0 66 74" style="enable-background:new 0 0 66 74;" xml:space="preserve">
<style type="text/css">
	.st0{fill:#393637;}
</style>
<path id="Прямоугольник_550" class="st0" d="M20.9,16.5c-0.5-0.3-0.7-0.9-0.4-1.4c0,0,0,0,0,0l4.5-7.7
	C12.6,10.7,3.6,21.3,2.3,33.9L0,35.2C0.9,21.4,10.2,9.6,23.4,5.7L17,2c-0.5-0.3-0.7-0.9-0.4-1.4c0,0,0,0,0,0C16.9,0,17.5-0.2,18,0.1
	L28.2,6l-5.9,10.1C22,16.6,21.4,16.8,20.9,16.5z M45.1,57.5c0.5,0.3,0.7,0.9,0.4,1.4c0,0,0,0,0,0l-4.5,7.7
	c12.3-3.3,21.3-13.8,22.6-26.5l2.2-1.3c-0.8,13.8-10.2,25.6-23.4,29.6L49,72c0.5,0.3,0.7,0.9,0.4,1.4c0,0,0,0,0,0
	c-0.3,0.5-0.9,0.7-1.5,0.4L37.8,68l5.9-10.1C44,57.4,44.6,57.2,45.1,57.5z"/>
<g>
	<path class="st0" d="M57.3,11.8C50,4.4,33,9.5,19.5,23C6,36.6,0.9,53.5,8.2,60.8c2.3,2.3,5.5,3.4,9.2,3.4c8.3,0,19.3-5.3,28.6-14.6
		C59.6,36,64.6,19.1,57.3,11.8z M44.7,48.2C31.9,61,16.1,66.1,9.5,59.5C3,52.9,8,37.2,20.8,24.4c9-9,19.5-14.2,27.2-14.2
		c3.3,0,6,0.9,8,2.9C62.6,19.7,57.5,35.4,44.7,48.2z"/>
	<path class="st0" d="M38.2,17.7c-2.8,2.8-3.6,6.1-2,7.7c0.6,0.6,1.3,0.8,2.2,0.8c1.7,0,3.7-1,5.5-2.8c2.8-2.8,3.6-6.1,2-7.7
		C44.3,14.1,40.9,15,38.2,17.7z M42.6,22.1c-2.2,2.2-4.4,2.6-5.1,2c-0.6-0.6-0.2-2.9,2-5.1c1.6-1.6,3.2-2.2,4.2-2.2
		c0.4,0,0.7,0.1,0.9,0.3C45.2,17.7,44.8,19.9,42.6,22.1z"/>
	<path class="st0" d="M21.7,26.7c-7.1,7.1-11,13.9-11.9,20.9c-0.1,0.5,0.3,1,0.8,1.1c0,0,0.1,0,0.1,0c0.5,0,0.9-0.3,0.9-0.8
		c0.9-6.5,4.6-13,11.4-19.8c0.4-0.4,0.4-1,0-1.3C22.7,26.3,22.1,26.3,21.7,26.7z"/>
	<path class="st0" d="M11.7,52.8c-0.1-0.5-0.6-0.8-1.1-0.7c-0.5,0.1-0.8,0.6-0.7,1.1c0.4,1.9,1.3,3.6,2.5,4.8
		c0.2,0.2,0.4,0.3,0.7,0.3c0.2,0,0.5-0.1,0.7-0.3c0.4-0.4,0.4-1,0-1.3C12.8,55.7,12.1,54.4,11.7,52.8z"/>
</g>
</svg>
