<svg xmlns="http://www.w3.org/2000/svg" width="23" height="24" viewBox="0 0 23 24">
  <defs>
    <style>
      .cls-1 {
        fill: #393637;
        fill-rule: evenodd;
        opacity: 0.3;
      }
    </style>
  </defs>
  <path class="cls-1" d="M18.187,14.867a2.226,2.226,0,0,0-1.643-.786,2.3,2.3,0,0,0-1.663.78l-1.536,1.6c-0.127-.07-0.253-0.137-0.374-0.2-0.175-.092-0.34-0.178-0.481-0.269a16.949,16.949,0,0,1-4-3.8,10.363,10.363,0,0,1-1.313-2.158c0.4-.38.768-0.775,1.128-1.155,0.136-.143.272-0.289,0.408-0.431a2.388,2.388,0,0,0,0-3.5L7.385,3.556C7.234,3.4,7.078,3.237,6.932,3.074c-0.292-.313-0.6-0.638-0.914-0.942A2.261,2.261,0,0,0,4.39,1.388a2.338,2.338,0,0,0-1.653.744l-0.01.01L1.074,3.879A3.777,3.777,0,0,0,.019,6.235,9.206,9.206,0,0,0,.642,9.993a22.015,22.015,0,0,0,3.719,6.464,23.033,23.033,0,0,0,7.618,6.215,11.508,11.508,0,0,0,4.278,1.317c0.1,0,.209.01,0.306,0.01a3.6,3.6,0,0,0,2.805-1.256c0-.011.015-0.015,0.019-0.026a11.248,11.248,0,0,1,.851-0.916c0.209-.208.423-0.426,0.632-0.653a2.583,2.583,0,0,0,.734-1.754,2.483,2.483,0,0,0-.749-1.737Zm1.74,5.333s0,0.006,0,0c-0.19.213-.384,0.405-0.593,0.618a12.933,12.933,0,0,0-.938,1.012,2.3,2.3,0,0,1-1.828.805c-0.073,0-.151,0-0.224,0a10.224,10.224,0,0,1-3.792-1.185,21.742,21.742,0,0,1-7.176-5.855,20.764,20.764,0,0,1-3.5-6.073,7.505,7.505,0,0,1-.544-3.171A2.367,2.367,0,0,1,2,4.842L3.661,3.115A1.088,1.088,0,0,1,4.4,2.755a1.026,1.026,0,0,1,.71.354L5.124,3.125C5.42,3.414,5.7,3.712,6,4.032c0.151,0.163.306,0.325,0.462,0.492L7.788,5.906a0.991,0.991,0,0,1,0,1.57C7.647,7.623,7.511,7.77,7.37,7.911c-0.408.436-.8,0.841-1.22,1.236a0.179,0.179,0,0,0-.024.025,1.065,1.065,0,0,0-.253,1.15l0.015,0.046a11.2,11.2,0,0,0,1.57,2.669l0,0.006a18.137,18.137,0,0,0,4.317,4.092,6.5,6.5,0,0,0,.6.34c0.175,0.091.34,0.177,0.481,0.269,0.019,0.009.039,0.025,0.058,0.035a0.962,0.962,0,0,0,1.22-.223L15.8,15.824a1.084,1.084,0,0,1,.734-0.379,0.977,0.977,0,0,1,.7.37l0.01,0.01,2.679,2.791A1.028,1.028,0,0,1,19.927,20.2Zm-7.5-14.492a6.083,6.083,0,0,1,3.354,1.814,6.549,6.549,0,0,1,1.741,3.494,0.661,0.661,0,0,0,.647.568,0.88,0.88,0,0,0,.112-0.01,0.683,0.683,0,0,0,.54-0.791,7.926,7.926,0,0,0-2.105-4.229,7.4,7.4,0,0,0-4.059-2.194,0.663,0.663,0,0,0-.758.557A0.675,0.675,0,0,0,12.431,5.708ZM22.99,10.586a13.038,13.038,0,0,0-3.466-6.965A12.175,12.175,0,0,0,12.839.01a0.656,0.656,0,0,0-.754.556,0.685,0.685,0,0,0,.54.791A10.9,10.9,0,0,1,18.6,4.584a11.641,11.641,0,0,1,3.1,6.225,0.661,0.661,0,0,0,.647.568,0.862,0.862,0,0,0,.112-0.01A0.669,0.669,0,0,0,22.99,10.586Z"/>
</svg>
