<svg xmlns="http://www.w3.org/2000/svg" width="62" height="62" viewBox="0 0 62 62">
  <defs>
    <style>
      .cls-1 {
        fill: #393637;
        fill-rule: evenodd;
      }
    </style>
  </defs>
  <path class="cls-1" d="M30.43,29.042a1.035,1.035,0,0,0-1.387.461,7.172,7.172,0,0,1-6.31,3.563A7.132,7.132,0,0,1,16.423,29.5a1.033,1.033,0,0,0-1.846.928,9.2,9.2,0,0,0,8.157,4.7,9.2,9.2,0,0,0,8.158-4.7A1.032,1.032,0,0,0,30.43,29.042ZM19.508,16.679c0.307-1.741-1.648-3.438-4.549-3.949a8.961,8.961,0,0,0-1.555-.139c-2.228,0-3.826.9-4.072,2.3-0.306,1.74,1.649,3.438,4.55,3.949a8.957,8.957,0,0,0,1.554.139C17.665,18.975,19.263,18.074,19.508,16.679Zm-8.141-1.434c0.021-.12.607-0.588,2.037-0.588a6.8,6.8,0,0,1,1.2.109c1.971,0.347,2.919,1.3,2.874,1.556-0.021.119-.608,0.587-2.038,0.587a7.048,7.048,0,0,1-1.195-.107C12.271,16.453,11.322,15.5,11.368,15.245Zm34.1-8.012c0-6.151-3-7.234-9.3-7.234a12.934,12.934,0,0,0-5.159,1.308A19.436,19.436,0,0,1,22.733,3.1,19.435,19.435,0,0,1,14.46,1.306,12.933,12.933,0,0,0,9.3,0C3,0,0,1.082,0,7.232c0,13.678,8.025,40.3,22.733,40.3S45.467,20.911,45.467,7.232ZM22.733,45.465C9.913,45.465,2.066,20.712,2.066,7.232c0-4.3,1.217-5.167,7.233-5.167a11.022,11.022,0,0,1,4.374,1.152,21.493,21.493,0,0,0,9.059,1.948,21.5,21.5,0,0,0,9.06-1.948,11.021,11.021,0,0,1,4.373-1.152c6.017,0,7.233.871,7.233,5.167C43.4,20.712,35.555,45.465,22.733,45.465Zm9.329-32.874a8.959,8.959,0,0,0-1.554.139,7.743,7.743,0,0,0-3.21,1.292,2.755,2.755,0,0,0-1.339,2.658c0.246,1.394,1.845,2.3,4.072,2.3a8.872,8.872,0,0,0,1.554-.14c2.9-.51,4.857-2.209,4.55-3.95C35.889,13.492,34.29,12.591,32.062,12.591ZM31.225,16.8a6.957,6.957,0,0,1-1.195.107c-1.429,0-2.016-.468-2.038-0.588a1.18,1.18,0,0,1,.536-0.64,5.747,5.747,0,0,1,2.339-.915,6.8,6.8,0,0,1,1.195-.109c1.43,0,2.017.469,2.037,0.587C34.144,15.5,33.2,16.454,31.225,16.8ZM52.7,14.466a11.245,11.245,0,0,0-4.742,1.144c-0.411.171-.851,0.352-1.338,0.538a1.033,1.033,0,1,0,.731,1.932c0.511-.193.968-0.382,1.4-0.56a9.238,9.238,0,0,1,3.952-.987c6.017,0,7.233.87,7.233,5.167,0,13.479-7.845,38.233-20.667,38.233-4.791,0-9.758-3.849-13.285-10.3a1.033,1.033,0,1,0-1.813.992c3.9,7.119,9.541,11.37,15.1,11.37C53.976,62,62,35.377,62,21.7,62,15.548,59,14.466,52.7,14.466ZM39.267,43.4a9.2,9.2,0,0,0-8.157,4.7,1.034,1.034,0,0,0,1.849.925,7.367,7.367,0,0,1,12.62,0,1.032,1.032,0,0,0,.923.567,1.021,1.021,0,0,0,.462-0.11,1.033,1.033,0,0,0,.462-1.387A9.2,9.2,0,0,0,39.267,43.4ZM52.575,29.352c-0.246-1.393-1.845-2.294-4.072-2.294a8.949,8.949,0,0,0-1.554.14,7.712,7.712,0,0,0-3.21,1.291,2.759,2.759,0,0,0-1.34,2.657c0.246,1.394,1.844,2.3,4.072,2.3a8.88,8.88,0,0,0,1.554-.139C50.926,32.791,52.882,31.095,52.575,29.352Zm-6.1,2.024c-1.429,0-2.016-.468-2.038-0.588a1.176,1.176,0,0,1,.536-0.639,5.749,5.749,0,0,1,2.338-.916,6.894,6.894,0,0,1,1.195-.109c1.43,0,2.017.469,2.038,0.587,0.045,0.254-.9,1.21-2.875,1.557A6.869,6.869,0,0,1,46.471,31.376Z"/>
</svg>
