<?xml version="1.0" encoding="utf-8"?>
<!-- Generator: Adobe Illustrator 22.0.1, SVG Export Plug-In . SVG Version: 6.00 Build 0)  -->
<svg version="1.1" id="Слой_1" xmlns="http://www.w3.org/2000/svg" xmlns:xlink="http://www.w3.org/1999/xlink" x="0px" y="0px"
	 viewBox="0 0 80 71" style="enable-background:new 0 0 80 71;" xml:space="preserve">
<style type="text/css">
	.st0{fill:#FFFFFF;}
	.st1{fill:#75CAF0;}
</style>
<rect y="0" class="st0" width="80" height="71"/>
<path id="Forma_1_копия_2" class="st1" d="M40,0C26.2,0,15.1,11.2,15.1,25v12c0,7.5,6,13.6,13.5,13.6h0.6v-2.1h-0.6
	c-6.3,0-11.5-5.2-11.4-11.5V25C17.2,12.4,27.4,2.2,40,2.2c12.6,0,22.8,10.2,22.8,22.8v12c0,6.3-5.1,11.5-11.4,11.5h-0.6v2.1h0.6
	c7.5,0,13.5-6.1,13.5-13.6V25C64.9,11.2,53.8,0,40,0z M66.3,57.4l-18.6-5.4v-5c3.7-2.5,5.8-6.7,5.8-11.2v-4h-4.6
	c-6.5,0-11.7-5.3-11.7-11.8v-1h-1c-5.3,0-9.6,4.4-9.6,9.7v7.1c0,4.5,2.2,8.6,5.8,11.2v5l-18.6,5.4C10.9,58.2,9,60.8,9,63.7V71h2.1
	v-7.3c0-2,1.3-3.7,3.2-4.3l20.1-5.9v-5.4c0.5,0.2,1,0.4,1.6,0.6c0,0,0,0,0,0c0.1,0,0.2,0,0.3,0.1c0,0,0.1,0,0.1,0
	c0.1,0,0.1,0,0.2,0.1c0,0,0.1,0,0.1,0c0.1,0,0.1,0,0.2,0s0.1,0,0.2,0s0.1,0,0.2,0c0.1,0,0.1,0,0.2,0l0.1,0c0.1,0,0.1,0,0.2,0
	c0,0,0.1,0,0.1,0c0.1,0,0.2,0,0.2,0c0,0,0.1,0,0.1,0l0.2,0c0,0,0.1,0,0.1,0l0.3,0c0,0,0.1,0,0.1,0c0.1,0,0.2,0,0.3,0
	c0,0,0.1,0,0.1,0c0.1,0,0.2,0,0.3,0h0.1c0.1,0,0.2,0,0.4,0s0.2,0,0.4,0h0.1c0.1,0,0.2,0,0.3,0c0,0,0.1,0,0.1,0c0.1,0,0.2,0,0.3,0
	c0,0,0.1,0,0.1,0l0.3,0c0,0,0.1,0,0.1,0l0.2,0c0,0,0.1,0,0.1,0c0.1,0,0.2,0,0.2,0c0,0,0.1,0,0.1,0c0.1,0,0.1,0,0.2,0l0.1,0
	c0.1,0,0.1,0,0.2,0c0.1,0,0.1,0,0.2,0s0.1,0,0.2,0s0.1,0,0.2,0c0,0,0.1,0,0.1,0c0.1,0,0.2,0,0.2-0.1c0,0,0.1,0,0.1,0
	c0.1,0,0.2,0,0.3-0.1c0,0,0,0,0,0c0.5-0.2,1.1-0.4,1.6-0.6v5.4l20.1,5.9c1.9,0.6,3.2,2.3,3.2,4.3V71H71v-7.3
	C71,60.8,69.1,58.2,66.3,57.4z M43.4,46.7C43.4,46.7,43.4,46.7,43.4,46.7c-0.2,0.1-0.4,0.1-0.5,0.2c0,0,0,0-0.1,0
	c-0.2,0-0.3,0.1-0.5,0.1c0,0-0.1,0-0.1,0c-0.1,0-0.3,0-0.4,0.1c0,0-0.1,0-0.1,0c-0.2,0-0.3,0-0.5,0.1c0,0-0.1,0-0.1,0l-0.4,0
	c-0.1,0-0.1,0-0.2,0c-0.2,0-0.3,0-0.5,0s-0.3,0-0.5,0c0,0-0.1,0-0.1,0l-0.4,0c0,0-0.1,0-0.1,0c-0.2,0-0.3,0-0.5-0.1c0,0-0.1,0-0.1,0
	c-0.1,0-0.3,0-0.4-0.1c0,0-0.1,0-0.1,0c-0.2,0-0.3-0.1-0.5-0.1c0,0,0,0-0.1,0c-0.2,0-0.3-0.1-0.5-0.1c0,0,0,0-0.1,0
	c-4.8-1.5-8-6-8-11v-7.1c0-3.8,2.8-7,6.6-7.5c0.6,7.2,6.6,12.7,13.8,12.7h2.6v1.9C51.4,40.8,48.2,45.2,43.4,46.7z"/>
</svg>
