<?xml version="1.0" encoding="UTF-8" standalone="no"?>
<svg
   xmlns:dc="http://purl.org/dc/elements/1.1/"
   xmlns:cc="http://creativecommons.org/ns#"
   xmlns:rdf="http://www.w3.org/1999/02/22-rdf-syntax-ns#"
   xmlns:svg="http://www.w3.org/2000/svg"
   xmlns="http://www.w3.org/2000/svg"
   xmlns:sodipodi="http://sodipodi.sourceforge.net/DTD/sodipodi-0.dtd"
   xmlns:inkscape="http://www.inkscape.org/namespaces/inkscape"
   version="1.1"
   viewBox="0 0 30.68754 30.68754"
   xml:space="preserve"
   id="svg161"
   sodipodi:docname="instagram.svg"
   width="30.68754"
   height="30.68754"
   inkscape:version="0.92.2 5c3e80d, 2017-08-06"><metadata
     id="metadata167"><rdf:RDF><cc:Work
         rdf:about=""><dc:format>image/svg+xml</dc:format><dc:type
           rdf:resource="http://purl.org/dc/dcmitype/StillImage" /><dc:title></dc:title></cc:Work></rdf:RDF></metadata><defs
     id="defs165" /><sodipodi:namedview
     pagecolor="#ffffff"
     bordercolor="#666666"
     borderopacity="1"
     objecttolerance="10"
     gridtolerance="10"
     guidetolerance="10"
     inkscape:pageopacity="0"
     inkscape:pageshadow="2"
     inkscape:window-width="1241"
     inkscape:window-height="688"
     id="namedview163"
     showgrid="false"
     fit-margin-top="0"
     fit-margin-left="0"
     fit-margin-right="0"
     fit-margin-bottom="0"
     inkscape:zoom="14.125"
     inkscape:cx="15.343751"
     inkscape:cy="15.34377"
     inkscape:window-x="38"
     inkscape:window-y="11"
     inkscape:window-maximized="0"
     inkscape:current-layer="svg161" /><g
     id="Icons"
     transform="translate(-8.656249,-8.65623)"><g
       id="Icons_8_"><g
         id="g157"><linearGradient
           gradientTransform="matrix(1,0,0,-1,0,50)"
           gradientUnits="userSpaceOnUse"
           id="SVGID_1_"
           x1="24"
           x2="24"
           y1="8.7171402"
           y2="43.880219"><stop
             offset="0.09694"
             style="stop-color:#FFD879"
             id="stop130" /><stop
             offset="0.15387"
             style="stop-color:#FCCB76"
             id="stop132" /><stop
             offset="0.25828"
             style="stop-color:#F5AA6C"
             id="stop134" /><stop
             offset="0.39756"
             style="stop-color:#E9755E"
             id="stop136" /><stop
             offset="0.44898"
             style="stop-color:#E45F58"
             id="stop138" /><stop
             offset="0.67857"
             style="stop-color:#D22A9C"
             id="stop140" /><stop
             offset="1"
             style="stop-color:#6968DF"
             id="stop142" /></linearGradient><circle
           cx="24.000019"
           cy="24"
           r="15.34377"
           style="fill:url(#SVGID_1_)"
           id="circle145" /><g
           id="g149"><path
             d="m 23.99985,27.7154 c -2.0488,0 -3.7153,-1.667 -3.7153,-3.7158 0,-2.0488 1.6665,-3.7148 3.7153,-3.7148 2.0489,0 3.7159,1.666 3.7159,3.7148 0,2.0488 -1.667,3.7158 -3.7159,3.7158 z m 0,-6.4306 c -1.497,0 -2.7153,1.2177 -2.7153,2.7148 0,1.4971 1.2183,2.7158 2.7153,2.7158 1.4976,0 2.7159,-1.2187 2.7159,-2.7158 0,-1.4971 -1.2183,-2.7148 -2.7159,-2.7148 z"
             style="fill:#ffffff"
             id="path147"
             inkscape:connector-curvature="0" /></g><circle
           cx="28.24785"
           cy="19.8909"
           r="0.4621"
           style="fill:#ffffff"
           id="circle151" /><g
           id="g155"><path
             d="m 27.19765,31.2643 h -6.3955 c -2.2427,0 -4.0669,-1.8243 -4.0669,-4.0665 v -6.3955 c 0,-2.2431 1.8242,-4.0673 4.0669,-4.0673 h 6.3955 c 2.2427,0 4.0669,1.8242 4.0669,4.0673 v 6.3955 c 0,2.2422 -1.8242,4.0665 -4.0669,4.0665 z M 20.80215,17.735 c -1.6909,0 -3.0669,1.3759 -3.0669,3.0673 v 6.3955 c 0,1.6905 1.376,3.0665 3.0669,3.0665 h 6.3955 c 1.6909,0 3.0669,-1.376 3.0669,-3.0665 v -6.3955 c 0,-1.6914 -1.376,-3.0673 -3.0669,-3.0673 z"
             style="fill:#ffffff"
             id="path153"
             inkscape:connector-curvature="0" /></g></g></g></g></svg>